<?xml version="1.0" encoding="UTF-8"?>
<svg version="1.1" xmlns="http://www.w3.org/2000/svg" width="500" height="500">
<path d="M0 0 C2.69037163 1.06258375 4.99687734 2.11623485 7.5 3.5 C8.89954197 4.23605296 10.29928761 4.97171874 11.69921875 5.70703125 C12.76342041 6.27671631 12.76342041 6.27671631 13.84912109 6.85791016 C19.26009132 9.73106779 24.76659007 12.42393595 30.25878906 15.13769531 C31.7461199 15.87427026 33.22900328 16.61981433 34.7109375 17.3671875 C43.30234576 21.51382934 52.43851376 24.26013031 61.49853516 27.1862793 C63.87977604 27.96089143 66.25272259 28.75702445 68.625 29.55859375 C93.7686643 37.95273492 119.92110675 41.76835453 146 46 C146.26691311 70.39791122 145.75261991 94.61790937 144.1328125 118.9642334 C143.93008 122.07174256 143.74865047 125.18052202 143.5625 128.2890625 C142.72421424 141.41743769 141.10524683 154.22317526 138.56201172 167.13037109 C137.9885817 170.05830176 137.44881385 172.99127459 136.91015625 175.92578125 C134.16558087 190.41110566 130.0485685 204.15793839 125 218 C124.68740234 218.85948242 124.37480469 219.71896484 124.05273438 220.60449219 C120.58041706 230.05112848 116.71311525 239.09907028 112 248 C111.32974912 249.3315352 110.66169158 250.6641907 110 252 C109.34 252 108.68 252 108 252 C107.91878906 252.66902344 107.83757812 253.33804688 107.75390625 254.02734375 C106.77035866 257.90547699 104.9235394 261.12744362 102.9375 264.5625 C102.33023071 265.62368042 102.33023071 265.62368042 101.71069336 266.70629883 C95.92972382 276.70187635 89.37888047 285.98288913 82.26953125 295.0625 C80.43368536 297.43867231 78.693333 299.83493903 77 302.3125 C76.34 303.199375 75.68 304.08625 75 305 C74.34 305 73.68 305 73 305 C72.73123047 305.5887793 72.46246094 306.17755859 72.18554688 306.78417969 C70.2253919 310.44776424 67.3257572 313.23422442 64.5 316.25 C63.90574219 316.8996875 63.31148437 317.549375 62.69921875 318.21875 C62.12816406 318.83234375 61.55710937 319.4459375 60.96875 320.078125 C60.44732422 320.63918945 59.92589844 321.20025391 59.38867188 321.77832031 C58 323 58 323 56 323 C56 323.66 56 324.32 56 325 C54.5390625 326.5078125 54.5390625 326.5078125 52.625 328.125 C51.99851562 328.66382813 51.37203125 329.20265625 50.7265625 329.7578125 C49 331 49 331 47 331 C47 331.66 47 332.32 47 333 C43.53846154 336 43.53846154 336 41 336 C41 336.66 41 337.32 41 338 C40.34 338 39.68 338 39 338 C39 338.66 39 339.32 39 340 C34.52941176 344 34.52941176 344 32 344 C32 344.66 32 345.32 32 346 C24.64484798 352.26312072 16.52844417 357.55728919 8.0625 362.1875 C7.03588257 362.76673218 7.03588257 362.76673218 5.98852539 363.35766602 C1.40664358 365.76763486 -2.7945247 367.04725174 -8 366 C-11.17085703 364.7749199 -14.05957495 363.19698707 -17 361.5 C-17.77472656 361.07074219 -18.54945313 360.64148438 -19.34765625 360.19921875 C-21.24018355 359.1478147 -23.12132855 358.07596638 -25 357 C-25 356.34 -25 355.68 -25 355 C-25.56203125 354.89558594 -26.1240625 354.79117187 -26.703125 354.68359375 C-29.42380471 353.87386765 -31.39257807 352.63796662 -33.75 351.0625 C-34.94882813 350.27552734 -34.94882813 350.27552734 -36.171875 349.47265625 C-36.77515625 348.98667969 -37.3784375 348.50070312 -38 348 C-38 347.34 -38 346.68 -38 346 C-38.8971875 345.566875 -38.8971875 345.566875 -39.8125 345.125 C-42 344 -42 344 -45 342 C-45 341.34 -45 340.68 -45 340 C-45.66 340 -46.32 340 -47 340 C-47 339.34 -47 338.68 -47 338 C-47.53625 337.773125 -48.0725 337.54625 -48.625 337.3125 C-51.82460161 335.54429911 -54.29037223 333.46329797 -57 331 C-57 330.34 -57 329.68 -57 329 C-57.79664063 328.67515625 -57.79664063 328.67515625 -58.609375 328.34375 C-61.88669285 326.50159748 -64.50802551 324.03862231 -67.25 321.5 C-67.80429688 321.00113281 -68.35859375 320.50226563 -68.9296875 319.98828125 C-70.3285008 318.7031646 -71.66944254 317.35566232 -73 316 C-73 315.34 -73 314.68 -73 314 C-73.66 314 -74.32 314 -75 314 C-75 313.34 -75 312.68 -75 312 C-75.66 312 -76.32 312 -77 312 C-78.5859375 310.42578125 -78.5859375 310.42578125 -80.375 308.3125 C-81.30699219 307.21421875 -81.30699219 307.21421875 -82.2578125 306.09375 C-82.83273438 305.4028125 -83.40765625 304.711875 -84 304 C-84.7425 303.113125 -85.485 302.22625 -86.25 301.3125 C-88 299 -88 299 -89.3046875 296.7578125 C-90.90265037 294.15836137 -92.66024049 291.76280264 -94.515625 289.34326172 C-101.75595871 279.85852859 -107.71046271 269.68734293 -113.640625 259.34912109 C-114.61110434 257.67204634 -115.62697277 256.02090438 -116.671875 254.38916016 C-118 252 -118 252 -118 249 C-118.66 249 -119.32 249 -120 249 C-122.88596633 243.51356078 -125.09330612 238.15968573 -126.9375 232.25 C-128.54173117 227.13108573 -130.31556769 222.18666878 -132.44140625 217.2578125 C-135.15428545 210.84490561 -137.13370191 204.32674951 -139 197.625 C-139.3417627 196.41199219 -139.68352539 195.19898438 -140.03564453 193.94921875 C-145.12921883 175.62292785 -149.57854351 157.13495684 -151 138.125 C-151.11964111 136.54936279 -151.11964111 136.54936279 -151.24169922 134.94189453 C-151.50828656 131.29541619 -151.75721815 127.6481408 -152 124 C-152.0689447 122.97048218 -152.0689447 122.97048218 -152.13928223 121.92016602 C-153.79889066 96.92824882 -154.26698114 72.04283139 -154 47 C-149.95083237 45.55575907 -146.08256388 44.57399581 -141.8359375 43.921875 C-140.64548828 43.73383301 -139.45503906 43.54579102 -138.22851562 43.35205078 C-136.32102539 43.05403564 -136.32102539 43.05403564 -134.375 42.75 C-111.7580549 39.10221738 -89.68470345 34.48833596 -68 27 C-66.44038311 26.47703196 -64.88049615 25.95486852 -63.3203125 25.43359375 C-55.33720771 22.73225338 -47.64825576 19.68490487 -40.06054688 15.99560547 C-37.49030708 14.75372894 -34.90919149 13.53561833 -32.328125 12.31640625 C-30.26020851 11.3363766 -28.19250176 10.35590428 -26.125 9.375 C-25.13741699 8.90747314 -24.14983398 8.43994629 -23.13232422 7.95825195 C-19.05989771 6.01404358 -15.10172875 4.10731994 -11.3046875 1.6640625 C-7.39214484 -0.30608309 -4.25827242 -0.75684139 0 0 Z " fill="#03411C" transform="translate(254,67)"/>
<path d="M0 0 C8.36599984 4.97360128 12.98644687 10.3301666 16.0078125 19.63671875 C16.47834901 22.2647152 16.46926163 24.76952303 16.4375 27.4375 C16.42847656 28.42234375 16.41945313 29.4071875 16.41015625 30.421875 C16.39855469 31.16953125 16.38695312 31.9171875 16.375 32.6875 C15.47136719 32.72488281 14.56773437 32.76226562 13.63671875 32.80078125 C12.45722656 32.86652344 11.27773438 32.93226563 10.0625 33 C8.89074219 33.05800781 7.71898437 33.11601562 6.51171875 33.17578125 C3.4218719 33.44787007 3.4218719 33.44787007 1.44140625 35.03515625 C0.06553159 36.79978644 0.06553159 36.79978644 0.625 39.8125 C1.08433524 42.56540841 1.08433524 42.56540841 2.375 43.6875 C4.72487262 43.92277773 7.08056039 44.10136417 9.4375 44.25 C11.726875 44.394375 14.01625 44.53875 16.375 44.6875 C16.375 49.6375 16.375 54.5875 16.375 59.6875 C14.10625 59.81125 11.8375 59.935 9.5 60.0625 C4.3772945 60.05453372 4.3772945 60.05453372 0.375 62.6875 C0.53942277 65.75741681 0.53942277 65.75741681 1.375 68.6875 C4.20769666 70.10384833 6.84966438 70.0338005 10 70.25 C12.10375 70.394375 14.2075 70.53875 16.375 70.6875 C16.375 75.6375 16.375 80.5875 16.375 85.6875 C14.10625 85.81125 11.8375 85.935 9.5 86.0625 C4.3772945 86.05453372 4.3772945 86.05453372 0.375 88.6875 C0.04166667 91.1875 0.04166667 91.1875 0.375 93.6875 C3.23293316 96.54543316 5.52165584 96.09549941 9.5 96.3125 C10.78132813 96.38726562 12.06265625 96.46203125 13.3828125 96.5390625 C14.86394531 96.61253906 14.86394531 96.61253906 16.375 96.6875 C17.25275994 106.42088249 15.33188574 115.01261307 9.68359375 123.11328125 C3.77924491 129.65860324 -3.6766885 133.1056486 -12.37890625 134.12890625 C-22.50889481 134.44578783 -30.14385871 132.8136371 -38 126.3125 C-44.03185509 120.59619467 -48.32300243 113.91784082 -48.80859375 105.5078125 C-48.81206037 102.56118948 -48.75745315 99.63090325 -48.625 96.6875 C-47.55378906 96.62691406 -46.48257813 96.56632812 -45.37890625 96.50390625 C-43.98175609 96.41951463 -42.58462143 96.33486594 -41.1875 96.25 C-40.48044922 96.21068359 -39.77339844 96.17136719 -39.04492188 96.13085938 C-35.53809581 96.21125562 -35.53809581 96.21125562 -32.625 94.6875 C-32.25739269 92.35932036 -31.92258419 90.0256615 -31.625 87.6875 C-35.09212111 86.53179296 -38.1664956 86.35914707 -41.8125 86.125 C-44.060625 85.980625 -46.30875 85.83625 -48.625 85.6875 C-48.625 80.7375 -48.625 75.7875 -48.625 70.6875 C-46.35625 70.56375 -44.0875 70.44 -41.75 70.3125 C-36.6272945 70.32046628 -36.6272945 70.32046628 -32.625 67.6875 C-32.45818891 64.60402174 -32.45818891 64.60402174 -32.625 61.6875 C-37.17101728 59.41449136 -43.71179597 60.00015844 -48.625 59.6875 C-48.625 54.7375 -48.625 49.7875 -48.625 44.6875 C-40.705 44.1925 -40.705 44.1925 -32.625 43.6875 C-31.02956931 37.37983334 -31.02956931 37.37983334 -32.61328125 34.79296875 C-35.63513972 33.13241351 -38.39167116 33.15691875 -41.8125 33 C-43.08480469 32.93425781 -44.35710937 32.86851562 -45.66796875 32.80078125 C-46.64378906 32.76339844 -47.61960938 32.72601563 -48.625 32.6875 C-49.33451351 22.32071921 -47.57608138 14.84999865 -40.8125 6.8125 C-37.31691449 3.14245828 -34.21633437 0.81919096 -29.625 -1.3125 C-28.68527344 -1.75722656 -28.68527344 -1.75722656 -27.7265625 -2.2109375 C-18.35526256 -6.24837502 -8.81165551 -4.68579674 0 0 Z " fill="#034019" transform="translate(265.625,140.3125)"/>
<path d="M0 0 C10.61352065 7.46556487 16.11957092 16.86122184 20 29 C20.33 29.99 20.66 30.98 21 32 C21.11159727 34.65925478 21.16765482 37.2929921 21.17700195 39.95288086 C21.18357315 40.76309692 21.19014435 41.57331299 21.19691467 42.40808105 C21.2166459 45.09366961 21.2283145 47.77920203 21.23828125 50.46484375 C21.24235678 51.38488253 21.2464323 52.3049213 21.25063133 53.25284004 C21.27149876 58.12957662 21.28579336 63.00628507 21.29516602 67.88305664 C21.30618688 72.8962363 21.34053452 77.90896676 21.38033772 82.92198849 C21.40662477 86.79560612 21.41486889 90.66911911 21.41844749 94.54281807 C21.42328816 96.3890032 21.43482932 98.23518445 21.45348549 100.08128166 C21.60571948 116.15416092 19.37955984 129.68443419 8.12109375 142.06640625 C-2.28943119 151.80392756 -14.62098034 154.70333548 -28.47265625 154.3828125 C-34.63915083 154.0251481 -39.6364013 151.9788602 -45 149 C-45.73476562 148.62746094 -46.46953125 148.25492188 -47.2265625 147.87109375 C-56.57224703 142.69307935 -62.70467104 134.0264854 -66 124 C-68.65380113 114.69299861 -68.32780103 105.12834367 -68.3359375 95.54296875 C-68.34237826 93.74994301 -68.34910753 91.95691829 -68.35610962 90.16389465 C-68.36803421 86.41775072 -68.37179539 82.67169866 -68.37060547 78.92553711 C-68.37040245 74.15811306 -68.3977089 69.3912862 -68.43214989 64.62400341 C-68.45453743 60.92362332 -68.45843942 57.22338434 -68.45738602 53.5229435 C-68.45972401 51.76690932 -68.46844411 50.01087017 -68.48405075 48.25490379 C-68.6166257 31.80022873 -66.09686503 19.1709135 -54.81640625 6.55859375 C-40.61605792 -7.59511961 -17.39950906 -9.43664904 0 0 Z M-50 18 C-54.2344397 24.17395525 -56.15166062 29.26050754 -56.0625 36.75 C-56.05347656 37.73484375 -56.04445312 38.7196875 -56.03515625 39.734375 C-56.02355469 40.48203125 -56.01195312 41.2296875 -56 42 C-55.02417969 42.03738281 -54.04835937 42.07476562 -53.04296875 42.11328125 C-51.77066406 42.17902344 -50.49835938 42.24476563 -49.1875 42.3125 C-47.92292969 42.37050781 -46.65835938 42.42851562 -45.35546875 42.48828125 C-42 43 -42 43 -39.98828125 44.10546875 C-39 46 -39 46 -40 53 C-47.92 53.495 -47.92 53.495 -56 54 C-56 58.95 -56 63.9 -56 69 C-52.596875 69.2165625 -52.596875 69.2165625 -49.125 69.4375 C-42.25 69.875 -42.25 69.875 -40 71 C-39.875 73.875 -39.875 73.875 -40 77 C-43.82410789 80.82410789 -50.89691803 79.72165007 -56 80 C-56 84.95 -56 89.9 -56 95 C-53.751875 95.144375 -51.50375 95.28875 -49.1875 95.4375 C-42.375 95.875 -42.375 95.875 -39 97 C-39.875 103.875 -39.875 103.875 -41 105 C-43.52596259 105.23653523 -46.03107207 105.42173692 -48.5625 105.5625 C-49.27341797 105.60568359 -49.98433594 105.64886719 -50.71679688 105.69335938 C-52.47761912 105.79971777 -54.2387832 105.90038846 -56 106 C-56.6345824 116.25908208 -55.41234096 124.08991483 -48.875 132.25 C-43.13174235 138.36539097 -36.13211026 142.56821188 -27.75 143.2734375 C-16.90035774 143.56728198 -7.9507712 141.88668658 0.4375 134.5 C7.15375976 127.05462644 9.6678244 117.80414007 9.17578125 107.94921875 C9.11777344 107.30597656 9.05976563 106.66273438 9 106 C7.51886719 105.92652344 7.51886719 105.92652344 6.0078125 105.8515625 C4.72648437 105.77679688 3.44515625 105.70203125 2.125 105.625 C0.84882813 105.55539063 -0.42734375 105.48578125 -1.7421875 105.4140625 C-5 105 -5 105 -7 103 C-7.25 100.5 -7.25 100.5 -7 98 C-3.17589211 94.17589211 3.89691803 95.27834993 9 95 C9 90.05 9 85.1 9 80 C6.916875 79.896875 4.83375 79.79375 2.6875 79.6875 C-3.4628971 79.3830249 -3.4628971 79.3830249 -5.93359375 77.62109375 C-7 76 -7 76 -6.75 73.375 C-6 71 -6 71 -5 70 C-2.65012738 69.76472227 -0.29443961 69.58613583 2.0625 69.4375 C5.4965625 69.2209375 5.4965625 69.2209375 9 69 C9 64.05 9 59.1 9 54 C5.41927083 53.83723958 1.83854167 53.67447917 -1.7421875 53.51171875 C-3.35480469 53.25841797 -3.35480469 53.25841797 -5 53 C-7 50 -7 50 -6.75 46.875 C-6.5025 45.92625 -6.255 44.9775 -6 44 C-3.16730334 42.58365167 -0.52533562 42.6536995 2.625 42.4375 C3.81351563 42.35371094 5.00203125 42.26992187 6.2265625 42.18359375 C7.14179688 42.12300781 8.05703125 42.06242187 9 42 C9.69574155 31.83444292 7.71067772 22.9468552 1 15 C-5.50825557 9.77350614 -11.59975657 5.96925886 -20 5 C-20.64710938 4.92265625 -21.29421875 4.8453125 -21.9609375 4.765625 C-32.98597751 4.04919641 -42.91619188 9.8876635 -50 18 Z " fill="#F2BA5A" transform="translate(273,131)"/>
<path d="M0 0 C2.9375 0.8125 2.9375 0.8125 4.9375 2.8125 C5.19287109 4.82104492 5.19287109 4.82104492 5.2109375 7.29296875 C5.22874268 8.20280518 5.24654785 9.1126416 5.26489258 10.05004883 C5.28845825 11.51027466 5.28845825 11.51027466 5.3125 13 C5.7062785 25.79520364 8.03039305 37.32890775 13.9375 48.8125 C14.28296875 49.53566406 14.6284375 50.25882812 14.984375 51.00390625 C18.2970649 57.5271826 22.82875817 62.61973281 27.9375 67.8125 C28.63875 68.52664063 29.34 69.24078125 30.0625 69.9765625 C43.17702327 82.4642887 60.97484 88.65293601 78.91381836 88.33178711 C99.12251937 87.40936402 116.55807777 78.83774926 130.9375 64.8125 C131.2675 64.1525 131.5975 63.4925 131.9375 62.8125 C132.5975 62.8125 133.2575 62.8125 133.9375 62.8125 C134.36289062 61.92111328 134.36289062 61.92111328 134.796875 61.01171875 C135.9375 58.8125 135.9375 58.8125 138.1875 55.625 C140.84098084 51.43612224 142.48233812 47.0270144 144.125 42.375 C144.37475586 41.67157471 144.62451172 40.96814941 144.88183594 40.2434082 C148.30809628 30.23165353 149.2707521 21.01284745 149.41601562 10.45703125 C149.44244141 9.51472656 149.46886719 8.57242188 149.49609375 7.6015625 C149.50954834 6.75287598 149.52300293 5.90418945 149.53686523 5.02978516 C150.02453389 2.33081703 150.72000132 1.39712488 152.9375 -0.1875 C156.58484979 0.03580713 158.32122835 0.19622835 160.9375 2.8125 C163.92953185 24.11626964 158.51403384 46.49010433 145.9375 63.8125 C145.3290625 64.7096875 144.720625 65.606875 144.09375 66.53125 C131.80078611 84.2877534 112.75574622 94.73294025 91.875 99.3671875 C88.9375 99.8125 88.9375 99.8125 82.9375 99.8125 C82.9375 111.0325 82.9375 122.2525 82.9375 133.8125 C86.22332031 133.77769531 89.50914062 133.74289062 92.89453125 133.70703125 C96.07168712 133.683645 99.24883346 133.66542308 102.42602539 133.64770508 C104.63668092 133.63260475 106.84730643 133.61212291 109.05786133 133.58618164 C112.23265993 133.54985345 115.40706297 133.53278616 118.58203125 133.51953125 C119.57274124 133.50404739 120.56345123 133.48856354 121.58418274 133.47261047 C122.50491074 133.47238388 123.42563873 133.47215729 124.37426758 133.47192383 C125.1847908 133.46526199 125.99531403 133.45860016 126.83039856 133.45173645 C129.46474711 133.90277166 130.33753585 134.7065537 131.9375 136.8125 C132.375 139.3125 132.375 139.3125 131.9375 141.8125 C130.16278196 143.82970371 128.6701266 144.70723394 126.00004578 145.09087944 C123.48191676 145.21185727 120.98003692 145.22909214 118.45898438 145.21655273 C117.49922195 145.22341599 116.53945953 145.23027924 115.5506134 145.23735046 C112.3773419 145.25565564 109.20456298 145.25177595 106.03125 145.24609375 C103.82694334 145.25065343 101.62263811 145.25595835 99.41833496 145.26197815 C94.79819972 145.27091632 90.17823727 145.26847762 85.55810547 145.25854492 C79.63276854 145.2470485 73.70802695 145.26727387 67.78276825 145.29646206 C63.23089805 145.31479235 58.67917139 145.31453801 54.12727356 145.30882454 C51.94235905 145.30867097 49.75743503 145.31474472 47.57255554 145.32711601 C44.51999345 145.3419658 41.46854253 145.33139319 38.41601562 145.31420898 C37.51095779 145.32387695 36.60589996 145.33354492 35.67341614 145.34350586 C29.57666792 145.2715053 29.57666792 145.2715053 26.33728027 142.94520569 C24.9375 140.8125 24.9375 140.8125 25.0625 138.1875 C25.9375 135.8125 25.9375 135.8125 27.9375 133.8125 C29.84841919 133.57199097 29.84841919 133.57199097 32.20361328 133.58544922 C33.08437531 133.58560028 33.96513733 133.58575134 34.87258911 133.58590698 C36.30077469 133.60139084 36.30077469 133.60139084 37.7578125 133.6171875 C38.73160858 133.6200174 39.70540466 133.62284729 40.70870972 133.62576294 C43.82676349 133.63698087 46.94453268 133.6620883 50.0625 133.6875 C52.17317294 133.69752772 54.28385038 133.70665393 56.39453125 133.71484375 C61.57571936 133.73522608 66.75629018 133.77437172 71.9375 133.8125 C71.9375 122.2625 71.9375 110.7125 71.9375 98.8125 C67.9775 98.8125 64.0175 98.8125 59.9375 98.8125 C37.88725984 94.41461203 20.06308687 79.85385912 7.04296875 62.015625 C1.13895591 53.03363887 -2.23603236 43.11823584 -5.0625 32.8125 C-5.239021 32.21840332 -5.41554199 31.62430664 -5.59741211 31.01220703 C-6.64906635 26.03824132 -6.29061801 20.81294436 -6.3125 15.75 C-6.333125 14.55310547 -6.35375 13.35621094 -6.375 12.12304688 C-6.38015625 10.97771484 -6.3853125 9.83238281 -6.390625 8.65234375 C-6.3999707 7.60425537 -6.40931641 6.55616699 -6.41894531 5.47631836 C-6.0625 2.8125 -6.0625 2.8125 -4.73339844 0.93579102 C-3.0625 -0.1875 -3.0625 -0.1875 0 0 Z " fill="#F3BB5B" transform="translate(172.0625,215.1875)"/>
<path d="M0 0 C0.20625 0.804375 0.4125 1.60875 0.625 2.4375 C1.07875 3.283125 1.5325 4.12875 2 5 C2.928125 5.144375 3.85625 5.28875 4.8125 5.4375 C8.44203368 6.07800594 9.81631911 7.25022325 12.03125 10.16796875 C13.72533966 13.37171089 13.81429684 16.40973881 14 20 C14.66 19.67 15.32 19.34 16 19 C19.13934893 19.78483723 22.09927418 20.54963709 25 22 C25.08107646 24.75059381 25.14052813 27.49879021 25.1875 30.25 C25.21263672 31.02730469 25.23777344 31.80460937 25.26367188 32.60546875 C25.30788562 36.05414078 25.29500442 38.40261605 23.75 41.53125 C20.67397888 44.11291058 17.87676944 43.25421439 14 43 C13.34 46.3 12.68 49.6 12 53 C8.23085596 53 6.99288991 52.99525994 4 51 C3.29413694 49.68699598 2.62224962 48.35463192 2 47 C1.95101562 47.99902344 1.90203125 48.99804688 1.8515625 50.02734375 C1.77679688 51.31769531 1.70203125 52.60804688 1.625 53.9375 C1.55539063 55.22527344 1.48578125 56.51304687 1.4140625 57.83984375 C1.20910156 59.40412109 1.20910156 59.40412109 1 61 C-1.76250036 62.38125018 -3.94731099 62.19079306 -7 62 C-9.61932883 59.38067117 -9.25782073 58.23932631 -9.2746582 54.58813477 C-9.28419022 53.45678604 -9.29372223 52.32543732 -9.30354309 51.1598053 C-9.30263168 49.93273361 -9.30172028 48.70566193 -9.30078125 47.44140625 C-9.30506638 46.18617661 -9.3093515 44.93094696 -9.31376648 43.63768005 C-9.31951898 40.97860794 -9.32093459 38.31992283 -9.31567383 35.66088867 C-9.30988048 32.25318163 -9.32680391 28.84601835 -9.3500185 25.43840122 C-9.36829349 22.18940678 -9.3645706 18.94044287 -9.36328125 15.69140625 C-9.372491 14.4663588 -9.38170074 13.24131134 -9.39118958 11.97914124 C-9.38496078 10.84464035 -9.37873199 9.71013947 -9.37231445 8.54125977 C-9.37294388 7.54135513 -9.3735733 6.5414505 -9.3742218 5.51124573 C-9 3 -9 3 -7.6759491 1.16539001 C-5.1691377 -0.57774943 -2.96474573 -0.19764972 0 0 Z " fill="#1E400C" transform="translate(160,141)"/>
<path d="M0 0 C1.83270264 0.36216736 1.83270264 0.36216736 4 1 C5.55649892 1.11056461 7.11662536 1.17531972 8.67675781 1.20532227 C10.05773651 1.2352401 10.05773651 1.2352401 11.46661377 1.26576233 C12.45216248 1.28247482 13.43771118 1.29918732 14.453125 1.31640625 C15.46848328 1.33718735 16.48384155 1.35796844 17.52996826 1.37937927 C20.76991073 1.44470597 24.00993348 1.50368137 27.25 1.5625 C29.44792493 1.60570126 31.64584178 1.64931607 33.84375 1.69335938 C39.22908206 1.80037007 44.6144938 1.90216773 50 2 C50 2.66 50 3.32 50 4 C50.66 4 51.32 4 52 4 C52.042721 5.66611905 52.04063832 7.33382885 52 9 C50.11050997 10.88949003 47.35384872 10.13326075 44.83883667 10.14663696 C43.50950607 10.14595718 43.50950607 10.14595718 42.15332031 10.14526367 C41.22486298 10.14862228 40.29640564 10.1519809 39.33981323 10.15544128 C36.25257042 10.16498503 33.16538167 10.16689633 30.078125 10.16796875 C27.93918841 10.17117975 25.80025204 10.1745437 23.66131592 10.17805481 C19.16873668 10.1840552 14.67617671 10.18589386 10.18359375 10.18530273 C4.42547214 10.18520124 -1.33252581 10.19883615 -7.09061813 10.21607494 C-11.51211108 10.22719387 -15.93357416 10.22922195 -20.35507965 10.22869301 C-22.47775955 10.22987395 -24.6004402 10.23430212 -26.72310638 10.24202538 C-29.69407285 10.25181982 -32.66477143 10.24894892 -35.63574219 10.24291992 C-36.51386566 10.24853943 -37.39198914 10.25415894 -38.29672241 10.25994873 C-42.57300204 10.23789131 -46.19695751 10.21099652 -50 8 C-50.875 5.4375 -50.875 5.4375 -51 3 C-50 2 -50 2 -48.07093811 1.89320374 C-46.80424538 1.90558327 -46.80424538 1.90558327 -45.51196289 1.91821289 C-44.08026512 1.92800926 -44.08026512 1.92800926 -42.61964417 1.93800354 C-41.06188515 1.95515663 -41.06188515 1.95515663 -39.47265625 1.97265625 C-37.29752763 1.98530205 -35.12239734 1.99766304 -32.94726562 2.00976562 C-29.49937822 2.03462014 -26.05157596 2.06260564 -22.60375977 2.09594727 C-19.28921952 2.12604713 -15.97478912 2.14389408 -12.66015625 2.16015625 C-11.62367447 2.17361588 -10.58719269 2.1870755 -9.51930237 2.20094299 C-8.08287636 2.20601112 -8.08287636 2.20601112 -6.61743164 2.21118164 C-5.77217422 2.21863907 -4.92691681 2.2260965 -4.05604553 2.23377991 C-1.77548213 2.19061134 -1.77548213 2.19061134 0 0 Z " fill="#FCBD5A" transform="translate(251,349)"/>
<path d="M0 0 C-2.72249492 2.72249492 -5.84787491 3.44344019 -9.4375 4.5625 C-10.09943359 4.78357422 -10.76136719 5.00464844 -11.44335938 5.23242188 C-17.52082169 7.14644664 -22.31704182 7.39245835 -29 8 C-29 19.22 -29 30.44 -29 42 C-24.07126953 41.94779297 -24.07126953 41.94779297 -19.04296875 41.89453125 C-15.86581288 41.871145 -12.68866654 41.85292308 -9.51147461 41.83520508 C-7.30081908 41.82010475 -5.09019357 41.79962291 -2.87963867 41.77368164 C0.29515993 41.73735345 3.46956297 41.72028616 6.64453125 41.70703125 C7.63524124 41.69154739 8.62595123 41.67606354 9.64668274 41.66011047 C10.56741074 41.65988388 11.48813873 41.65965729 12.43676758 41.65942383 C13.65255241 41.64943108 13.65255241 41.64943108 14.89289856 41.63923645 C17.5299462 42.09073378 18.41668844 42.87429575 20 45 C20.1875 47.6875 20.1875 47.6875 20 50 C19.505 48.02 19.505 48.02 19 46 C18.34 46 17.68 46 17 46 C17 45.34 17 44.68 17 44 C16.43259094 44.00222061 15.86518188 44.00444122 15.28057861 44.00672913 C9.3758609 44.02884984 3.47115495 44.04393501 -2.43359375 44.05493164 C-4.63737466 44.05996088 -6.84115222 44.06678505 -9.04492188 44.07543945 C-12.21224796 44.0875666 -15.37952994 44.09324241 -18.546875 44.09765625 C-19.53242371 44.10281754 -20.51797241 44.10797882 -21.53338623 44.11329651 C-22.91436493 44.11340981 -22.91436493 44.11340981 -24.32324219 44.11352539 C-25.1315448 44.115746 -25.93984741 44.11796661 -26.77264404 44.12025452 C-29 44 -29 44 -31.04229736 43.36790466 C-33.64650389 42.87850463 -34.69398884 43.78428051 -37 45 C-39.22735596 45.24050903 -39.22735596 45.24050903 -41.67675781 45.22705078 C-42.59741028 45.22689972 -43.51806274 45.22674866 -44.46661377 45.22659302 C-45.45216248 45.21627045 -46.43771118 45.20594788 -47.453125 45.1953125 C-48.97616241 45.19106766 -48.97616241 45.19106766 -50.52996826 45.18673706 C-53.77009916 45.17555001 -57.00995276 45.15044791 -60.25 45.125 C-62.44791267 45.1149683 -64.64582968 45.10584278 -66.84375 45.09765625 C-72.22926114 45.07561551 -77.61461076 45.04215251 -83 45 C-82.67 46.65 -82.34 48.3 -82 50 C-79.25546465 50.77000914 -76.79781835 51.13157122 -73.95037842 51.15821838 C-73.15394928 51.1680072 -72.35752014 51.17779602 -71.53695679 51.18788147 C-70.24007431 51.19651466 -70.24007431 51.19651466 -68.91699219 51.20532227 C-67.99957245 51.21522186 -67.08215271 51.22512146 -66.13693237 51.23532104 C-63.10693943 51.26688842 -60.07693081 51.2916747 -57.046875 51.31640625 C-54.94508458 51.33697988 -52.84329826 51.35797647 -50.74151611 51.37937927 C-45.21121543 51.43455762 -39.68087767 51.48398563 -34.1505127 51.53222656 C-28.50655825 51.58247249 -22.86265761 51.63814243 -17.21875 51.69335938 C-6.14587931 51.80088915 4.92703812 51.90234566 16 52 C16 52.33 16 52.66 16 53 C3.16114794 53.09261059 -9.67762487 53.16371975 -22.51674271 53.20724869 C-28.47824131 53.22813862 -34.43951167 53.25648238 -40.40087891 53.30175781 C-46.15209959 53.34516472 -51.90310052 53.36912651 -57.65447235 53.37950897 C-59.85057791 53.38690956 -62.04667121 53.40136089 -64.24268341 53.42292023 C-67.31472427 53.45188514 -70.38585276 53.45595883 -73.45800781 53.45410156 C-74.82502083 53.47567322 -74.82502083 53.47567322 -76.21965027 53.49768066 C-82.36106793 53.4574069 -82.36106793 53.4574069 -85.60418701 51.13568115 C-87 49 -87 49 -86.875 46.375 C-86 44 -86 44 -84 42 C-82.05111694 41.75949097 -82.05111694 41.75949097 -79.64208984 41.77294922 C-78.74130707 41.77310028 -77.84052429 41.77325134 -76.91244507 41.77340698 C-75.93844757 41.78372955 -74.96445007 41.79405212 -73.9609375 41.8046875 C-72.96494537 41.8075174 -71.96895325 41.81034729 -70.94277954 41.81326294 C-67.75339882 41.8244816 -64.56429622 41.84958919 -61.375 41.875 C-59.21614988 41.88502762 -57.05729537 41.89415385 -54.8984375 41.90234375 C-49.59886301 41.92442639 -44.29945137 41.95792042 -39 42 C-39.00523682 41.17274414 -39.01047363 40.34548828 -39.01586914 39.49316406 C-39.03665469 35.74545043 -39.04966524 31.99774894 -39.0625 28.25 C-39.07087891 26.94804687 -39.07925781 25.64609375 -39.08789062 24.3046875 C-39.09111328 23.05429687 -39.09433594 21.80390625 -39.09765625 20.515625 C-39.10289307 19.36352539 -39.10812988 18.21142578 -39.11352539 17.02441406 C-38.9563629 12.83747 -38.8087631 10.83537688 -35.86328125 7.79296875 C-32.42358731 5.63905399 -30.2206522 5.44145415 -26.1875 5.3125 C-24.96160156 5.25835937 -23.73570312 5.20421875 -22.47265625 5.1484375 C-21.32667969 5.09945313 -20.18070312 5.05046875 -19 5 C-16.31972708 4.72769361 -13.66834466 4.37356825 -11 4 C-11 3.34 -11 2.68 -11 2 C-7.17679443 0.57741188 -4.08718695 -0.24042276 0 0 Z " fill="#E9BA5E" transform="translate(284,307)"/>
<path d="M0 0 C2.375 0.8125 2.375 0.8125 3.375 2.8125 C3.47109124 4.65563437 3.50295904 6.50226344 3.50439453 8.34790039 C3.50754669 9.50572525 3.51069885 10.66355011 3.51394653 11.85646057 C3.5119223 13.11168015 3.50989807 14.36689972 3.5078125 15.66015625 C3.50876923 16.94232529 3.50972595 18.22449432 3.51071167 19.54551697 C3.51218671 22.25993045 3.51003994 24.97431104 3.50537109 27.6887207 C3.49966822 31.17491041 3.50295754 34.66102323 3.50894356 38.14721012 C3.51341655 41.46403174 3.51028929 44.78083244 3.5078125 48.09765625 C3.50983673 49.35490005 3.51186096 50.61214386 3.51394653 51.90748596 C3.51079437 53.06215866 3.50764221 54.21683136 3.50439453 55.40649414 C3.50320114 56.93966026 3.50320114 56.93966026 3.50198364 58.50379944 C3.375 60.8125 3.375 60.8125 2.375 61.8125 C-0.5625 62 -0.5625 62 -3.625 61.8125 C-6.24432883 59.19317117 -5.88282073 58.05182631 -5.8996582 54.40063477 C-5.90919022 53.26928604 -5.91872223 52.13793732 -5.92854309 50.9723053 C-5.92763168 49.74523361 -5.92672028 48.51816193 -5.92578125 47.25390625 C-5.93006638 45.99867661 -5.9343515 44.74344696 -5.93876648 43.45018005 C-5.94451898 40.79110794 -5.94593459 38.13242283 -5.94067383 35.47338867 C-5.93488048 32.06568163 -5.95180391 28.65851835 -5.9750185 25.25090122 C-5.99329349 22.00190678 -5.9895706 18.75294287 -5.98828125 15.50390625 C-5.997491 14.2788588 -6.00670074 13.05381134 -6.01618958 11.79164124 C-6.00996078 10.65714035 -6.00373199 9.52263947 -5.99731445 8.35375977 C-5.99794388 7.35385513 -5.9985733 6.3539505 -5.9992218 5.32374573 C-5.625 2.8125 -5.625 2.8125 -4.26579285 0.95445251 C-2.625 -0.1875 -2.625 -0.1875 0 0 Z " fill="#FABD5B" transform="translate(156.625,141.1875)"/>
<path d="M0 0 C2.5 0.25 2.5 0.25 4.5 2.25 C4.712112 5.01160397 4.80397075 7.67038052 4.80078125 10.43359375 C4.80506638 11.2449025 4.8093515 12.05621124 4.81376648 12.8921051 C4.819514 14.60945705 4.82000694 16.32683335 4.81567383 18.04418945 C4.8125165 20.6737622 4.83595748 23.30220731 4.86132812 25.93164062 C4.86360132 27.59895691 4.86430452 29.26627623 4.86328125 30.93359375 C4.872491 31.72116562 4.88170074 32.50873749 4.89118958 33.32017517 C4.84552723 38.70165034 4.84552723 38.70165034 3.22729492 41.26977539 C1.5 42.25 1.5 42.25 -2.5 42.25 C-5.04078897 38.43881655 -4.78832297 35.34916827 -4.765625 30.93359375 C-4.76753845 30.12132828 -4.7694519 29.30906281 -4.77142334 28.47218323 C-4.77278347 26.75659881 -4.76909904 25.04100405 -4.76074219 23.32543945 C-4.75002622 20.69393931 -4.7606502 18.06311971 -4.7734375 15.43164062 C-4.77211615 13.76562349 -4.76955425 12.09960678 -4.765625 10.43359375 C-4.76967346 9.64399765 -4.77372192 8.85440155 -4.77789307 8.0408783 C-4.71260492 0.47126049 -4.71260492 0.47126049 0 0 Z " fill="#BFA95E" transform="translate(143.5,151.75)"/>
<path d="M0 0 C3.08080147 1.0840517 5.44165675 1.19406794 8.70043945 1.16064453 C9.81225586 1.15419922 10.92407227 1.14775391 12.06958008 1.14111328 C13.22006836 1.12435547 14.37055664 1.10759766 15.5559082 1.09033203 C17.31064453 1.07679688 17.31064453 1.07679688 19.10083008 1.06298828 C21.98189874 1.03946935 24.86254809 1.00660055 27.7434082 0.96533203 C28.2384082 2.45033203 28.2384082 2.45033203 28.7434082 3.96533203 C29.4034082 4.62533203 30.0634082 5.28533203 30.7434082 5.96533203 C30.4134082 6.62533203 30.0834082 7.28533203 29.7434082 7.96533203 C28.4234082 7.96533203 27.1034082 7.96533203 25.7434082 7.96533203 C25.4134082 8.95533203 25.0834082 9.94533203 24.7434082 10.96533203 C17.18546821 13.48464536 5.67648515 13.35530493 -1.6940918 10.15283203 C-3.75359078 9.06691438 -5.1649464 8.05930937 -6.79174805 6.39111328 C-8.31106029 4.70546086 -8.31106029 4.70546086 -11.2565918 3.96533203 C-11.0065918 2.09033203 -11.0065918 2.09033203 -10.2565918 -0.03466797 C-6.43546927 -2.80168773 -4.0326004 -1.84898415 0 0 Z " fill="#F7BB5B" transform="translate(236.256591796875,273.03466796875)"/>
<path d="M0 0 C0.72703125 0.20496094 1.4540625 0.40992188 2.203125 0.62109375 C3.20859375 0.89050781 4.2140625 1.15992188 5.25 1.4375 C6.22453125 1.70433594 7.1990625 1.97117187 8.203125 2.24609375 C13.39965741 3.27791551 18.72031927 3.56002661 24 4 C24 15.55 24 27.1 24 39 C20.84695312 39.04898438 17.69390625 39.09796875 14.4453125 39.1484375 C11.40050397 39.20240614 8.35577589 39.2597298 5.31103516 39.31738281 C3.1906531 39.35572842 1.07020474 39.39057133 -1.05029297 39.421875 C-4.09366598 39.46740466 -7.13658032 39.52541839 -10.1796875 39.5859375 C-11.60787308 39.60326431 -11.60787308 39.60326431 -13.06491089 39.62094116 C-13.94567291 39.64081085 -14.82643494 39.66068054 -15.73388672 39.68115234 C-16.51110077 39.69447601 -17.28831482 39.70779968 -18.08908081 39.7215271 C-20.2388947 39.84039576 -20.2388947 39.84039576 -22 42 C-21.67673447 45.59679066 -21.67673447 45.59679066 -21 49 C-7.88306262 49.04628303 5.23385542 49.08184867 18.35085773 49.10362434 C24.44120983 49.11407407 30.53150617 49.12825498 36.62182617 49.15087891 C42.49621824 49.17256485 48.37055658 49.18455966 54.24498558 49.18975449 C56.48933953 49.19345789 58.73369046 49.20068942 60.97802162 49.21146011 C64.1147262 49.22591849 67.25120707 49.22798031 70.38793945 49.22705078 C71.32157822 49.23424133 72.25521698 49.24143188 73.21714783 49.24884033 C74.07110138 49.246091 74.92505493 49.24334167 75.80488586 49.24050903 C76.54692922 49.24235262 77.28897257 49.24419621 78.05350208 49.24609566 C80.32409978 49.10601141 80.32409978 49.10601141 83 47 C83.72965366 44.43717258 83.72965366 44.43717258 84 42 C84.33 42 84.66 42 85 42 C85 44.64 85 47.28 85 50 C82.07079825 51.67376167 80.01080003 52.24397537 76.64666748 52.20254517 C75.78292511 52.19688034 74.91918274 52.19121552 74.02926636 52.18537903 C73.08987213 52.16883774 72.15047791 52.15229645 71.18261719 52.13525391 C70.18716888 52.12579239 69.19172058 52.11633087 68.16610718 52.10658264 C64.87617616 52.07290788 61.58662221 52.02479122 58.296875 51.9765625 C56.01573675 51.95039511 53.734588 51.92512812 51.45343018 51.90072632 C45.44949059 51.83407818 39.44577165 51.75518441 33.4420166 51.67376709 C27.31559722 51.59284447 21.1890484 51.5234659 15.0625 51.453125 C3.04151151 51.31340181 -8.97927554 51.16074568 -21 51 C-21.495 49.515 -21.495 49.515 -22 48 C-22.66 48 -23.32 48 -24 48 C-24 45.03 -24 42.06 -24 39 C-23.34 39 -22.68 39 -22 39 C-22 38.34 -22 37.68 -22 37 C-7.81 36.67 6.38 36.34 21 36 C22.51465024 30.53915739 22.51465024 30.53915739 21 28 C20.91573906 26.3325394 20.89274857 24.66174813 20.90234375 22.9921875 C20.90556641 22.00605469 20.90878906 21.01992188 20.91210938 20.00390625 C20.92467773 18.45509766 20.92467773 18.45509766 20.9375 16.875 C20.94201172 15.83472656 20.94652344 14.79445313 20.95117188 13.72265625 C20.96298048 11.14838038 20.97944925 8.57421854 21 6 C19.824375 6.04125 18.64875 6.0825 17.4375 6.125 C13.32992699 6.125 9.91231623 5.30410541 6 4 C4.2984375 3.443125 4.2984375 3.443125 2.5625 2.875 C1.716875 2.58625 0.87125 2.2975 0 2 C0 1.34 0 0.68 0 0 Z " fill="#1B3A06" transform="translate(220,310)"/>
<path d="M0 0 C3.53571429 0.53571429 3.53571429 0.53571429 5 2 C5.08865208 4.8843382 5.11521296 7.74462158 5.09765625 10.62890625 C5.0962413 11.49313705 5.09482635 12.35736786 5.09336853 13.24778748 C5.08775239 16.01939292 5.07519719 18.7909188 5.0625 21.5625 C5.05748708 23.4368478 5.05292381 25.31119685 5.04882812 27.18554688 C5.03777772 31.79039544 5.0205023 36.39518421 5 41 C3.35 41.66 1.7 42.32 0 43 C-2.63185269 40.36814731 -2.24871862 38.46131131 -2.27789307 34.87854004 C-2.2738446 34.04205933 -2.26979614 33.20557861 -2.265625 32.34375 C-2.26753845 31.48567749 -2.2694519 30.62760498 -2.27142334 29.74353027 C-2.27278544 27.92781278 -2.26908728 26.11208555 -2.26074219 24.29638672 C-2.25004291 21.5111715 -2.26063653 18.72660132 -2.2734375 15.94140625 C-2.27211591 14.17968607 -2.26955353 12.41796629 -2.265625 10.65625 C-2.26967346 9.81976929 -2.27372192 8.98328857 -2.27789307 8.12145996 C-2.22991834 2.22991834 -2.22991834 2.22991834 0 0 Z " fill="#F5BE5E" transform="translate(166,151)"/>
<path d="M0 0 C1.01513672 -0.02900391 2.03027344 -0.05800781 3.07617188 -0.08789062 C4.53700195 -0.10045898 4.53700195 -0.10045898 6.02734375 -0.11328125 C6.9205835 -0.12786377 7.81382324 -0.14244629 8.73413086 -0.1574707 C11.0625 0.3125 11.0625 0.3125 12.87719727 2.33911133 C13.46392212 3.31593872 13.46392212 3.31593872 14.0625 4.3125 C9.42669849 7.98070431 6.14122008 8.86249365 0.1875 8.5625 C-0.50085938 8.54445312 -1.18921875 8.52640625 -1.8984375 8.5078125 C-3.5787381 8.46113748 -5.25831163 8.38940939 -6.9375 8.3125 C-6.9375 8.9725 -6.9375 9.6325 -6.9375 10.3125 C-8.2575 10.3125 -9.5775 10.3125 -10.9375 10.3125 C-10.9375 9.3225 -10.9375 8.3325 -10.9375 7.3125 C-11.47375 7.6425 -12.01 7.9725 -12.5625 8.3125 C-15.4766061 9.53949204 -17.80617708 9.45483286 -20.9375 9.3125 C-18.40961993 6.51377563 -16.73338866 4.85476981 -12.9375 4.3125 C-12.9375 3.3225 -12.9375 2.3325 -12.9375 1.3125 C-9.0524148 -0.6300426 -4.27354463 0.04054596 0 0 Z " fill="#FABC58" transform="translate(246.9375,126.6875)"/>
<path d="M0 0 C0.99 0.33 1.98 0.66 3 1 C2.01 1.66 1.02 2.32 0 3 C-0.43899313 5.50277638 -0.43899313 5.50277638 -0.34057617 8.45947266 C-0.34034958 9.60050446 -0.34012299 10.74153625 -0.33988953 11.91714478 C-0.32440567 13.15362762 -0.30892181 14.39011047 -0.29296875 15.6640625 C-0.28872391 16.92640717 -0.28447906 18.18875183 -0.28010559 19.48934937 C-0.26613137 22.84661351 -0.23917302 26.20326932 -0.20599365 29.56036377 C-0.17531352 32.98550148 -0.1616047 36.41070201 -0.14648438 39.8359375 C-0.11334641 46.5574605 -0.06309539 53.27869511 0 60 C1.32 60 2.64 60 4 60 C4.33 41.19 4.66 22.38 5 3 C5.33 3 5.66 3 6 3 C6.02312851 10.54498233 6.04091769 18.08996101 6.05181217 25.63497066 C6.05703989 29.13808885 6.0641355 32.64118285 6.07543945 36.14428711 C6.08834206 40.16780841 6.09322912 44.19130414 6.09765625 48.21484375 C6.10281754 49.47836166 6.10797882 50.74187958 6.11329651 52.04368591 C6.11337204 53.204814 6.11344757 54.36594208 6.11352539 55.56225586 C6.115746 56.59039902 6.11796661 57.61854218 6.12025452 58.67784119 C6 61 6 61 5 62 C2.0625 62.1875 2.0625 62.1875 -1 62 C-3.61932883 59.38067117 -3.25782073 58.23932631 -3.2746582 54.58813477 C-3.28419022 53.45678604 -3.29372223 52.32543732 -3.30354309 51.1598053 C-3.30263168 49.93273361 -3.30172028 48.70566193 -3.30078125 47.44140625 C-3.30506638 46.18617661 -3.3093515 44.93094696 -3.31376648 43.63768005 C-3.31951898 40.97860794 -3.32093459 38.31992283 -3.31567383 35.66088867 C-3.30988048 32.25318163 -3.32680391 28.84601835 -3.3500185 25.43840122 C-3.36829349 22.18940678 -3.3645706 18.94044287 -3.36328125 15.69140625 C-3.372491 14.4663588 -3.38170074 13.24131134 -3.39118958 11.97914124 C-3.38496078 10.84464035 -3.37873199 9.71013947 -3.37231445 8.54125977 C-3.37294388 7.54135513 -3.3735733 6.5414505 -3.3742218 5.51124573 C-2.94608803 2.63821933 -2.25205937 1.7593843 0 0 Z " fill="#B3A052" transform="translate(154,141)"/>
<path d="M0 0 C2.475 0.495 2.475 0.495 5 1 C5 12.55 5 24.1 5 36 C3.35 36 1.7 36 0 36 C0 24.12 0 12.24 0 0 Z " fill="#FCBD58" transform="translate(141,155)"/>
<path d="M0 0 C0.99 0.33 1.98 0.66 3 1 C2.60167969 1.59425781 2.20335937 2.18851563 1.79296875 2.80078125 C0.99826172 4.04408203 0.99826172 4.04408203 0.1875 5.3125 C-0.33457031 6.11300781 -0.85664063 6.91351563 -1.39453125 7.73828125 C-6.6388561 18.39280983 -6.42987227 29.07398557 -6.36328125 40.66015625 C-6.36276142 42.45893859 -6.36328386 44.25772151 -6.36479187 46.0565033 C-6.36470262 49.80932195 -6.35436987 53.56192367 -6.33618164 57.31469727 C-6.31347996 62.10129138 -6.31295862 66.88756975 -6.31969929 71.67420292 C-6.32305598 75.38303892 -6.31637754 79.09180422 -6.30657005 82.80062675 C-6.30274829 84.56469794 -6.30155714 86.32877703 -6.3031559 88.09285164 C-6.33443361 101.17027788 -6.33443361 101.17027788 -4 114 C-3.81073441 114.7058876 -3.62146881 115.41177521 -3.4264679 116.13905334 C-2.97465308 117.76612923 -2.4916678 119.38452009 -2 121 C-2.66 121 -3.32 121 -4 121 C-9.12480943 110.88810599 -8.60199237 100.57954664 -8.56640625 89.546875 C-8.57165216 87.55828564 -8.57793215 85.56969876 -8.58518982 83.58111572 C-8.59555821 79.42553958 -8.59108609 75.2703066 -8.57641602 71.11474609 C-8.55926793 65.82836543 -8.58269357 60.54307584 -8.61790562 55.25681686 C-8.64002986 51.15227254 -8.63840148 47.04798301 -8.6301403 42.94339752 C-8.62932833 40.99644019 -8.6360451 39.04946269 -8.65091133 37.10256195 C-8.72577811 25.52160594 -8.43640735 14.52206305 -3 4 C-2.01 3.67 -1.02 3.34 0 3 C0 2.01 0 1.02 0 0 Z " fill="#233E07" transform="translate(212,141)"/>
<path d="M0 0 C4.55555556 0.55555556 4.55555556 0.55555556 6 2 C6.07319621 4.69654854 6.09242537 7.36691458 6.0625 10.0625 C6.05798828 10.82111328 6.05347656 11.57972656 6.04882812 12.36132812 C6.0370068 14.24091871 6.01907078 16.12046899 6 18 C3.125 18.625 3.125 18.625 0 19 C-2.49210439 16.50789561 -2.26015661 14.99639212 -2.2734375 11.58984375 C-2.26570312 10.90019531 -2.25796875 10.21054688 -2.25 9.5 C-2.25773438 8.81035156 -2.26546875 8.12070313 -2.2734375 7.41015625 C-2.25333293 2.25333293 -2.25333293 2.25333293 0 0 Z " fill="#FBBD59" transform="translate(177,163)"/>
<path d="M0 0 C4.55555556 0.55555556 4.55555556 0.55555556 6 2 C6.12586907 4.2890608 6.17577971 6.58251118 6.1875 8.875 C6.20167969 10.13054687 6.21585938 11.38609375 6.23046875 12.6796875 C6 16 6 16 4 19 C-0.875 18.125 -0.875 18.125 -2 17 C-2.12653198 14.50761431 -2.18519825 12.05529559 -2.1875 9.5625 C-2.19974609 8.86833984 -2.21199219 8.17417969 -2.22460938 7.45898438 C-2.22989842 5.63779099 -2.12169207 3.8171308 -2 2 C-1.34 1.34 -0.68 0.68 0 0 Z " fill="#E0B45B" transform="translate(130,163)"/>
<path d="M0 0 C0.66 0 1.32 0 2 0 C2.1162356 11.9183401 2.2048883 23.83654367 2.25906086 35.75533676 C2.28507095 41.29070923 2.3203114 46.82569174 2.37719727 52.36083984 C2.43182412 57.71011396 2.46148502 63.05901476 2.47438622 68.40854645 C2.48357126 70.44176351 2.5015067 72.47496188 2.52865028 74.50801849 C2.81237897 96.65524869 2.81237897 96.65524869 -3 105 C-4.485 105.495 -4.485 105.495 -6 106 C-5.06775188 103.1225608 -4.12417694 100.2929933 -2.94342041 97.50701904 C0.98897194 87.69247582 0.50808991 77.96556965 0.390625 67.578125 C0.38315044 65.62230004 0.37746326 63.6664675 0.37347412 61.71063232 C0.35831335 56.60106165 0.31911553 51.49195689 0.2746582 46.38256836 C0.23349764 41.15354715 0.215419 35.92444954 0.1953125 30.6953125 C0.1526107 20.46333868 0.08447725 10.23170832 0 0 Z " fill="#23440F" transform="translate(293,160)"/>
<path d="M0 0 C5.11791642 -0.10662326 9.92928099 0.28832014 15 1 C15 1.66 15 2.32 15 3 C13.35 3.66 11.7 4.32 10 5 C10 5.99 10 6.98 10 8 C11.32 8.33 12.64 8.66 14 9 C11.0911057 10.45444715 8.72143174 9.92625656 5.5 9.6875 C4.3346875 9.60886719 3.169375 9.53023437 1.96875 9.44921875 C-1 9 -1 9 -3 7 C-3.125 4.375 -3.125 4.375 -3 2 C-2.01 2 -1.02 2 0 2 C0 1.34 0 0.68 0 0 Z " fill="#FCBD59" transform="translate(270,227)"/>
<path d="M0 0 C0.66 0.33 1.32 0.66 2 1 C1.67 2.32 1.34 3.64 1 5 C1.763125 5 2.52625 5 3.3125 5 C9 5 9 5 12 6 C-0.57534247 16 -0.57534247 16 -4 16 C-4 15.34 -4 14.68 -4 14 C-3.34 14 -2.68 14 -2 14 C-1.67 13.01 -1.34 12.02 -1 11 C-1.66 10.34 -2.32 9.68 -3 9 C-2.67 8.34 -2.34 7.68 -2 7 C-4.31 7 -6.62 7 -9 7 C-6.03716687 4.61327331 -3.05729491 2.2646629 0 0 Z " fill="#EEBA5E" transform="translate(292,289)"/>
<path d="M0 0 C0.72703125 0.20496094 1.4540625 0.40992188 2.203125 0.62109375 C3.71132812 1.02521484 3.71132812 1.02521484 5.25 1.4375 C6.71179688 1.83775391 6.71179688 1.83775391 8.203125 2.24609375 C13.39965741 3.27791551 18.72031927 3.56002661 24 4 C24 15.55 24 27.1 24 39 C23.67 39 23.34 39 23 39 C22.93941406 38.37351562 22.87882812 37.74703125 22.81640625 37.1015625 C22.73261719 36.28429687 22.64882812 35.46703125 22.5625 34.625 C22.48128906 33.81289063 22.40007812 33.00078125 22.31640625 32.1640625 C22.10909886 29.95727195 22.10909886 29.95727195 21 28 C20.91573906 26.3325394 20.89274857 24.66174813 20.90234375 22.9921875 C20.90556641 22.00605469 20.90878906 21.01992188 20.91210938 20.00390625 C20.92048828 18.97136719 20.92886719 17.93882812 20.9375 16.875 C20.94201172 15.83472656 20.94652344 14.79445313 20.95117188 13.72265625 C20.96298048 11.14838038 20.97944925 8.57421854 21 6 C19.2365625 6.061875 19.2365625 6.061875 17.4375 6.125 C13.32992699 6.125 9.91231623 5.30410541 6 4 C4.865625 3.62875 3.73125 3.2575 2.5625 2.875 C1.2940625 2.441875 1.2940625 2.441875 0 2 C0 1.34 0 0.68 0 0 Z " fill="#34501B" transform="translate(220,310)"/>
<path d="M0 0 C-1 1.5625 -1 1.5625 -3 3 C-5.76614782 2.96726452 -8.26030547 2.49404328 -11 2 C-10.95875 3.051875 -10.9175 4.10375 -10.875 5.1875 C-11 9 -11 9 -13 14 C-9.37 14 -5.74 14 -2 14 C-2 14.33 -2 14.66 -2 15 C-6.62 15 -11.24 15 -16 15 C-16 10.05 -16 5.1 -16 0 C-12.596875 -0.2784375 -12.596875 -0.2784375 -9.125 -0.5625 C-7.21074219 -0.71912109 -7.21074219 -0.71912109 -5.2578125 -0.87890625 C-2 -1 -2 -1 0 0 Z " fill="#063E15" transform="translate(233,185)"/>
<path d="M0 0 C2.24893954 -0.10823773 4.49937575 -0.18569645 6.75 -0.25 C8.00296875 -0.29640625 9.2559375 -0.3428125 10.546875 -0.390625 C14 0 14 0 16.45703125 1.85546875 C18 4 18 4 17.9375 6.5625 C16.89417648 9.27514116 16.35165559 10.30914019 14 12 C9.30736629 12.40971773 4.71873609 12.12987347 0 12 C0 16.95 0 21.9 0 27 C4.62 27 9.24 27 14 27 C14 27.33 14 27.66 14 28 C9.05 28 4.1 28 -1 28 C-1.19384179 25.18780295 -1.38036603 22.37545804 -1.5625 19.5625 C-1.61857422 18.76005859 -1.67464844 17.95761719 -1.73242188 17.13085938 C-1.8616295 15.08937889 -1.9351273 13.04453631 -2 11 C-1 10 -1 10 2.59765625 9.90234375 C4.08596867 9.9090178 5.57426432 9.92097817 7.0625 9.9375 C8.20041992 9.94426758 8.20041992 9.94426758 9.36132812 9.95117188 C11.24091871 9.9629932 13.12046899 9.98092922 15 10 C15.2502157 7.08365871 15.2502157 7.08365871 15 4 C11.59568053 1.73045369 9.83475798 1.63450051 5.8125 1.375 C4.72582031 1.30023438 3.63914063 1.22546875 2.51953125 1.1484375 C1.68808594 1.09945312 0.85664063 1.05046875 0 1 C0 0.67 0 0.34 0 0 Z " fill="#BAA95C" transform="translate(217,173)"/>
<path d="M0 0 C1.32 0 2.64 0 4 0 C4 1.32 4 2.64 4 4 C4.598125 4.28875 5.19625 4.5775 5.8125 4.875 C8 6 8 6 11 8 C10.67 9.65 10.34 11.3 10 13 C9.34 12.67 8.68 12.34 8 12 C8 11.34 8 10.68 8 10 C6.88625 10.2784375 6.88625 10.2784375 5.75 10.5625 C2.98581192 11.00225719 1.53944604 11.13837236 -1 10 C-2.60963543 7.77717012 -3.07214218 6.61320852 -2.75 3.875 C-2 2 -2 2 0 0 Z " fill="#FCBD58" transform="translate(193,281)"/>
<path d="M0 0 C1.32 0.33 2.64 0.66 4 1 C5.171875 6.859375 5.171875 6.859375 5 9 C3.46875 11.25 3.46875 11.25 1 13 C-2.453125 13.390625 -2.453125 13.390625 -6.25 13.25 C-7.51328125 13.21390625 -8.7765625 13.1778125 -10.078125 13.140625 C-11.52445313 13.07101563 -11.52445313 13.07101563 -13 13 C-12.52129086 15.08343851 -12.04201531 17.16674689 -11.5625 19.25 C-11.16224609 20.99023438 -11.16224609 20.99023438 -10.75390625 22.765625 C-10.50511719 23.83296875 -10.25632813 24.9003125 -10 26 C-9.84402344 26.77859375 -9.68804687 27.5571875 -9.52734375 28.359375 C-9.35332031 28.90078125 -9.17929688 29.4421875 -9 30 C-8.34 30.33 -7.68 30.66 -7 31 C-7.33 32.32 -7.66 33.64 -8 35 C-14.31252034 27.78569104 -14.40990406 20.10897915 -14 11 C-12.92878906 10.93941406 -11.85757813 10.87882813 -10.75390625 10.81640625 C-9.35675609 10.73201463 -7.95962143 10.64736594 -6.5625 10.5625 C-5.50192383 10.50352539 -5.50192383 10.50352539 -4.41992188 10.44335938 C-0.91309581 10.52375562 -0.91309581 10.52375562 2 9 C2.36760731 6.67182036 2.70241581 4.3381615 3 2 C2.01 1.67 1.02 1.34 0 1 C0 0.67 0 0.34 0 0 Z " fill="#354E14" transform="translate(231,226)"/>
<path d="M0 0 C0.99773437 0.02320313 1.99546875 0.04640625 3.0234375 0.0703125 C4.52777344 0.09738281 4.52777344 0.09738281 6.0625 0.125 C6.83335937 0.14820313 7.60421875 0.17140625 8.3984375 0.1953125 C8.7284375 1.1853125 9.0584375 2.1753125 9.3984375 3.1953125 C8.4084375 4.6803125 8.4084375 4.6803125 7.3984375 6.1953125 C6.4084375 5.8653125 5.4184375 5.5353125 4.3984375 5.1953125 C4.3984375 6.1853125 4.3984375 7.1753125 4.3984375 8.1953125 C-2.3515625 8.3203125 -2.3515625 8.3203125 -4.6015625 7.1953125 C-4.7265625 4.8203125 -4.7265625 4.8203125 -4.6015625 2.1953125 C-2.6015625 0.1953125 -2.6015625 0.1953125 0 0 Z " fill="#FCBD58" transform="translate(271.6015625,200.8046875)"/>
<path d="M0 0 C2.97 0.495 2.97 0.495 6 1 C6.02464928 6.25105442 6.04283568 11.50207545 6.05493164 16.75317383 C6.05997218 18.54094021 6.06680454 20.32870245 6.07543945 22.11645508 C6.0875173 24.68051168 6.09323094 27.24451397 6.09765625 29.80859375 C6.10281754 30.6127623 6.10797882 31.41693085 6.11329651 32.24546814 C6.11349215 34.16401715 6.06201983 36.08245368 6 38 C5 39 5 39 2.4375 39.0625 C1.633125 39.041875 0.82875 39.02125 0 39 C1.98 38.505 1.98 38.505 4 38 C3.505 20.675 3.505 20.675 3 3 C2.01 2.67 1.02 2.34 0 2 C0 1.34 0 0.68 0 0 Z " fill="#D2AB59" transform="translate(142,153)"/>
<path d="M0 0 C-0.66 2.97 -1.32 5.94 -2 9 C-6.47238653 7.58192622 -10.71146306 5.88695626 -15 4 C-15 3.34 -15 2.68 -15 2 C-13.68 2 -12.36 2 -11 2 C-11 1.34 -11 0.68 -11 0 C-7.07632508 -2.82504594 -4.32061114 -1.49559616 0 0 Z " fill="#FCBD58" transform="translate(273,132)"/>
<path d="M0 0 C6.625 0.75 6.625 0.75 10 3 C10.30411284 5.88012751 10.41800444 8.49848048 10.375 11.375 C10.38660156 12.14328125 10.39820313 12.9115625 10.41015625 13.703125 C10.39248521 17.10774488 10.27666335 19.4466733 8.73828125 22.5234375 C5.67901734 25.12209313 2.87156335 24.25387301 -1 24 C-0.34 22.68 0.32 21.36 1 20 C1.78375 20.165 2.5675 20.33 3.375 20.5 C5.88208039 21.0623707 5.88208039 21.0623707 8 21 C7.67 15.72 7.34 10.44 7 5 C2.28941438 3.6278958 2.28941438 3.6278958 -1 5 C-0.67 3.35 -0.34 1.7 0 0 Z " fill="#304813" transform="translate(175,160)"/>
<path d="M0 0 C2.43611433 3.6541715 2.63928894 6.87371481 3.0625 11.125 C3.14556396 11.89328125 3.22862793 12.6615625 3.31420898 13.453125 C3.47720723 14.9661077 3.63690219 16.47945065 3.79296875 17.99316406 C4.03410408 20.33058437 4.29662405 22.66527685 4.5625 25 C4.80787782 27.16609385 5.02763804 29.32756199 5.2109375 31.5 C5.28570312 32.325 5.36046875 33.15 5.4375 34 C5.49808594 34.7425 5.55867188 35.485 5.62109375 36.25 C5.80865234 37.11625 5.80865234 37.11625 6 38 C6.66 38.33 7.32 38.66 8 39 C7.34 40.98 6.68 42.96 6 45 C5.67 45 5.34 45 5 45 C1.63117243 29.95779316 0.23334602 15.40687237 0 0 Z " fill="#4C745D" transform="translate(103,192)"/>
<path d="M0 0 C1.13917374 0.00666183 1.13917374 0.00666183 2.30136108 0.01345825 C3.16210236 0.01360931 4.02284363 0.01376038 4.90966797 0.01391602 C5.83991791 0.02423859 6.77016785 0.03456116 7.72860718 0.04519653 C8.68020721 0.04802643 9.63180725 0.05085632 10.61224365 0.05377197 C13.6589706 0.06498914 16.70540621 0.09009641 19.75204468 0.11550903 C21.81454044 0.12553685 23.8770408 0.13466304 25.93954468 0.14285278 C31.00215735 0.16493349 36.06455158 0.19947374 41.12704468 0.24050903 C41.12704468 0.57050903 41.12704468 0.90050903 41.12704468 1.24050903 C40.0679187 1.26556519 39.00879272 1.29062134 37.91757202 1.31643677 C33.97019341 1.41094827 30.02297292 1.51106038 26.07577515 1.61282349 C24.37073478 1.65600749 22.66565576 1.6976935 20.96054077 1.73782349 C18.50290301 1.79592876 16.04545683 1.85950489 13.58798218 1.92410278 C12.45324966 1.94917152 12.45324966 1.94917152 11.29559326 1.9747467 C7.15445081 2.08941657 3.19443875 2.45009566 -0.87295532 3.24050903 C-0.68466761 5.68530982 -0.68466761 5.68530982 0.12704468 8.24050903 C2.09462741 9.60071055 2.09462741 9.60071055 4.12704468 10.24050903 C0.75204468 10.42800903 0.75204468 10.42800903 -2.87295532 10.24050903 C-4.87295532 7.24050903 -4.87295532 7.24050903 -4.62295532 4.67800903 C-3.75548574 1.85873288 -3.06991965 0.39421304 0 0 Z " fill="#DAC97C" transform="translate(201.87295532226563,348.7594909667969)"/>
<path d="M0 0 C0.33 0 0.66 0 1 0 C1.06058594 0.78246094 1.12117187 1.56492188 1.18359375 2.37109375 C1.26738281 3.38300781 1.35117188 4.39492187 1.4375 5.4375 C1.51871094 6.44683594 1.59992188 7.45617187 1.68359375 8.49609375 C1.73211468 10.93640779 1.73211468 10.93640779 3 12 C3.07325168 14.86267567 3.09238205 17.700719 3.0625 20.5625 C3.05798828 21.36880859 3.05347656 22.17511719 3.04882812 23.00585938 C3.03700518 25.00393756 3.01906914 27.00197783 3 29 C2.67 29 2.34 29 2 29 C1.95101562 29.68707031 1.90203125 30.37414062 1.8515625 31.08203125 C1.77679688 31.98308594 1.70203125 32.88414062 1.625 33.8125 C1.55539063 34.70582031 1.48578125 35.59914062 1.4140625 36.51953125 C1 39 1 39 -1 42 C-1.66 41.67 -2.32 41.34 -3 41 C-2.34 40.01 -1.68 39.02 -1 38 C-0.75878651 35.10340651 -0.62700558 32.2946645 -0.5859375 29.39453125 C-0.56657135 28.55532639 -0.5472052 27.71612152 -0.5272522 26.85148621 C-0.46748787 24.17192742 -0.42108388 21.4923256 -0.375 18.8125 C-0.3368173 16.99542401 -0.29776539 15.17836606 -0.2578125 13.36132812 C-0.16178897 8.90769868 -0.07774641 4.45398449 0 0 Z " fill="#133C0A" transform="translate(172,153)"/>
<path d="M0 0 C6.29151265 0.36297188 6.29151265 0.36297188 9.20996094 2.98706055 C11.6559877 7.1041386 11.50787659 10.32114548 11.390625 15.01953125 C11.38496521 15.87810226 11.37930542 16.73667328 11.37347412 17.6212616 C11.35115787 20.3522516 11.30097167 23.08190939 11.25 25.8125 C11.2299288 27.66860079 11.21167911 29.52472223 11.1953125 31.38085938 C11.15130881 35.92108296 11.08231521 40.46031593 11 45 C10.67 45 10.34 45 10 45 C9.67 32.46 9.34 19.92 9 7 C5.25308553 5.60229416 5.25308553 5.60229416 3 7 C1.5 5.75 1.5 5.75 0 4 C0 2.68 0 1.36 0 0 Z " fill="#2A4915" transform="translate(161,146)"/>
<path d="M0 0 C0.33 0 0.66 0 1 0 C1.33 12.54 1.66 25.08 2 38 C3.65 38.33 5.3 38.66 7 39 C6.01 39.99 5.02 40.98 4 42 C3.01 41.67 2.02 41.34 1 41 C1 40.34 1 39.68 1 39 C0.01 38.67 -0.98 38.34 -2 38 C-2 31.07 -2 24.14 -2 17 C-1.67 17 -1.34 17 -1 17 C-0.67 11.39 -0.34 5.78 0 0 Z " fill="#3C5A24" transform="translate(163,154)"/>
<path d="M0 0 C0.33 0 0.66 0 1 0 C1.02505615 1.10512939 1.0501123 2.21025879 1.07592773 3.34887695 C1.17006509 7.44714044 1.27027041 11.54523694 1.37231445 15.64331055 C1.41563934 17.41735937 1.45731619 19.19144923 1.49731445 20.96557617 C1.5550762 23.51493705 1.61875362 26.0640918 1.68359375 28.61328125 C1.70030624 29.40712723 1.71701874 30.20097321 1.73423767 31.01887512 C1.82117718 34.24683077 1.97250366 36.91751099 3 40 C5.475 39.505 5.475 39.505 8 39 C8 39.66 8 40.32 8 41 C5.69 41 3.38 41 1 41 C-0.41634833 38.16730334 -0.3463005 35.52533562 -0.5625 32.375 C-0.64628906 31.18648437 -0.73007813 29.99796875 -0.81640625 28.7734375 C-0.90728516 27.40058594 -0.90728516 27.40058594 -1 26 C-1.33 26.66 -1.66 27.32 -2 28 C-2.66 27.67 -3.32 27.34 -4 27 C-3.67 26.34 -3.34 25.68 -3 25 C-2.76970044 22.62876754 -2.58880058 20.25258057 -2.4375 17.875 C-2.35371094 16.59367187 -2.26992187 15.31234375 -2.18359375 13.9921875 C-2.12300781 13.00476563 -2.06242188 12.01734375 -2 11 C-1.67 11 -1.34 11 -1 11 C-0.67 7.37 -0.34 3.74 0 0 Z " fill="#193C0A" transform="translate(138,154)"/>
<path d="M0 0 C1.17246771 4.09902098 1.07076062 7.75436258 1 12 C0.030625 12.2475 -0.93875 12.495 -1.9375 12.75 C-2.948125 13.1625 -3.95875 13.575 -5 14 C-5.96877057 16.03243548 -5.96877057 16.03243548 -6 18 C-5.34 18 -4.68 18 -4 18 C-4.99 20.475 -4.99 20.475 -6 23 C-6.99 22.34 -7.98 21.68 -9 21 C-9.33 21.66 -9.66 22.32 -10 23 C-10.99 22.67 -11.98 22.34 -13 22 C-12.34 22 -11.68 22 -11 22 C-10.71898437 21.41476562 -10.43796875 20.82953125 -10.1484375 20.2265625 C-9.08510664 18.16500268 -7.91211968 16.30158041 -6.625 14.375 C-3.74025064 9.83815383 -1.84601598 5.03271395 0 0 Z " fill="#DFB55E" transform="translate(317,256)"/>
<path d="M0 0 C4.55555556 0.55555556 4.55555556 0.55555556 6 2 C6.07319621 4.69654854 6.09242537 7.36691458 6.0625 10.0625 C6.05798828 10.82111328 6.05347656 11.57972656 6.04882812 12.36132812 C6.0370068 14.24091871 6.01907078 16.12046899 6 18 C3.125 18.625 3.125 18.625 0 19 C-2.49210439 16.50789561 -2.26015661 14.99639212 -2.2734375 11.58984375 C-2.26570312 10.90019531 -2.25796875 10.21054688 -2.25 9.5 C-2.25773438 8.81035156 -2.26546875 8.12070313 -2.2734375 7.41015625 C-2.25333293 2.25333293 -2.25333293 2.25333293 0 0 Z M0 2 C0 6.95 0 11.9 0 17 C1.65 17 3.3 17 5 17 C5 12.38 5 7.76 5 3 C3.35 2.67 1.7 2.34 0 2 Z " fill="#D2BB6A" transform="translate(177,163)"/>
<path d="M0 0 C0.33 0.66 0.66 1.32 1 2 C1.66 2 2.32 2 3 2 C2.67 13.88 2.34 25.76 2 38 C1.67 38 1.34 38 1 38 C0.06921053 25.31799345 -0.11185009 12.71362727 0 0 Z " fill="#0C3D0F" transform="translate(161,150)"/>
<path d="M0 0 C0.33 0 0.66 0 1 0 C1.02936502 3.81248345 1.04692035 7.62493726 1.0625 11.4375 C1.07087891 12.50677734 1.07925781 13.57605469 1.08789062 14.67773438 C1.10681896 20.86730027 0.98960154 26.88189737 0 33 C-0.66 33.66 -1.32 34.32 -2 35 C-2.64767793 37.57061311 -2.64767793 37.57061311 -3 40 C-3.66 40 -4.32 40 -5 40 C-4.72285156 38.87207031 -4.44570313 37.74414062 -4.16015625 36.58203125 C-1.29784002 24.3515378 -0.24962108 12.54345928 0 0 Z " fill="#3B5215" transform="translate(333,220)"/>
<path d="M0 0 C2.125 0.375 2.125 0.375 4 1 C2.02 1.99 2.02 1.99 0 3 C-0.33 15.21 -0.66 27.42 -1 40 C0.32 40.66 1.64 41.32 3 42 C1.68 42 0.36 42 -1 42 C-3.09441119 39.90558881 -2.16414502 35.33334318 -2.16796875 32.44140625 C-2.17129715 31.58191879 -2.17462555 30.72243134 -2.17805481 29.8368988 C-2.1831277 28.01521339 -2.18546302 26.19351864 -2.18530273 24.37182617 C-2.18748803 21.5778071 -2.20563644 18.78418343 -2.22460938 15.99023438 C-2.2275434 14.22395969 -2.22952814 12.45768312 -2.23046875 10.69140625 C-2.23765427 9.85178848 -2.24483978 9.01217072 -2.25224304 8.14710999 C-2.22882181 2.22882181 -2.22882181 2.22882181 0 0 Z " fill="#DCBB67" transform="translate(166,151)"/>
<path d="M0 0 C-5.89436192 5.89436192 -18.20249325 5.28665665 -26.125 5.3125 C-27.35077759 5.32047607 -27.35077759 5.32047607 -28.60131836 5.32861328 C-32.69690582 5.27998325 -35.36700363 5.04095784 -39 3 C-38.36908447 3.00523682 -37.73816895 3.01047363 -37.08813477 3.01586914 C-34.24626653 3.03657826 -31.40441412 3.04964066 -28.5625 3.0625 C-27.56927734 3.07087891 -26.57605469 3.07925781 -25.55273438 3.08789062 C-24.60849609 3.09111328 -23.66425781 3.09433594 -22.69140625 3.09765625 C-21.81685791 3.10289307 -20.94230957 3.10812988 -20.04125977 3.11352539 C-18.00559794 3.22784809 -18.00559794 3.22784809 -17 2 C-15.52603261 1.79231771 -14.0450874 1.63283983 -12.5625 1.5 C-8.10722296 1.09952566 -4.56004773 -0.09913147 0 0 Z " fill="#3F551B" transform="translate(274,299)"/>
<path d="M0 0 C0.66 0.33 1.32 0.66 2 1 C0.20963542 1.94401042 -1.58072917 2.88802083 -3.37109375 3.83203125 C-5.32267987 4.99019799 -5.32267987 4.99019799 -6 8 C-15 9 -15 9 -24 10 C-21.53606195 8.35737464 -19.85365356 7.48895989 -17.12890625 6.5625 C-16.38962891 6.30726562 -15.65035156 6.05203125 -14.88867188 5.7890625 C-14.12103516 5.52867188 -13.35339844 5.26828125 -12.5625 5 C-11.04211695 4.48165844 -9.52255575 3.96089878 -8.00390625 3.4375 C-7.33174072 3.20933594 -6.6595752 2.98117188 -5.96704102 2.74609375 C-3.93149978 2.02423567 -3.93149978 2.02423567 -1.87475586 0.84765625 C-1.25608643 0.56792969 -0.63741699 0.28820312 0 0 Z " fill="#5F806D" transform="translate(207,86)"/>
<path d="M0 0 C1.90845703 0.04060547 1.90845703 0.04060547 3.85546875 0.08203125 C5.31919922 0.13423828 5.31919922 0.13423828 6.8125 0.1875 C6.8125 0.5175 6.8125 0.8475 6.8125 1.1875 C2.8525 1.1875 -1.1075 1.1875 -5.1875 1.1875 C-5.1875 1.8475 -5.1875 2.5075 -5.1875 3.1875 C-6.1775 3.1875 -7.1675 3.1875 -8.1875 3.1875 C-7.5275 5.1675 -6.8675 7.1475 -6.1875 9.1875 C-1.8975 9.5175 2.3925 9.8475 6.8125 10.1875 C6.8125 10.5175 6.8125 10.8475 6.8125 11.1875 C4.54225032 11.26847324 2.27117925 11.32667704 0 11.375 C-1.89685547 11.42720703 -1.89685547 11.42720703 -3.83203125 11.48046875 C-7.1875 11.1875 -7.1875 11.1875 -9.11328125 9.83203125 C-10.65513912 7.47158702 -10.6013927 5.9467847 -10.1875 3.1875 C-7.61448813 -0.75154727 -4.3686988 -0.12023942 0 0 Z " fill="#D7B765" transform="translate(275.1875,225.8125)"/>
<path d="M0 0 C1.66611905 -0.042721 3.33382885 -0.04063832 5 0 C6 1 6 1 6.25 3.875 C6 7 6 7 4.93359375 8.68359375 C1.96020864 10.70789836 -0.64803329 10.28491652 -4.1875 10.1875 C-5.45980469 10.16042969 -6.73210937 10.13335937 -8.04296875 10.10546875 C-9.01878906 10.07066406 -9.99460938 10.03585938 -11 10 C-11 9.34 -11 8.68 -11 8 C-6.38 7.67 -1.76 7.34 3 7 C3 5.35 3 3.7 3 2 C2.01 1.34 1.02 0.68 0 0 Z " fill="#D5B765" transform="translate(228,201)"/>
<path d="M0 0 C-2.46089912 2.46089912 -9.96845878 1.77662328 -13 2 C-13.66 5.96 -14.32 9.92 -15 14 C-10.71 14 -6.42 14 -2 14 C-2 14.33 -2 14.66 -2 15 C-6.62 15 -11.24 15 -16 15 C-16 10.05 -16 5.1 -16 0 C-12.596875 -0.2784375 -12.596875 -0.2784375 -9.125 -0.5625 C-7.21074219 -0.71912109 -7.21074219 -0.71912109 -5.2578125 -0.87890625 C-2 -1 -2 -1 0 0 Z " fill="#1B3D09" transform="translate(233,185)"/>
<path d="M0 0 C2 3 2 3 3 8 C7.29 8 11.58 8 16 8 C16 8.66 16 9.32 16 10 C13.73020335 10.10794277 11.45894804 10.18556176 9.1875 10.25 C7.92292969 10.29640625 6.65835937 10.3428125 5.35546875 10.390625 C2 10 2 10 0.03125 8.1875 C-1.39049076 5.17168627 -0.79179136 3.16716546 0 0 Z " fill="#CFB363" transform="translate(266,175)"/>
<path d="M0 0 C0.33 0 0.66 0 1 0 C1 3.3 1 6.6 1 10 C6.28 10 11.56 10 17 10 C17 10.99 17 11.98 17 13 C17.66 13 18.32 13 19 13 C19 15.97 19 18.94 19 22 C18.01 22 17.02 22 16 22 C16.226875 20.906875 16.45375 19.81375 16.6875 18.6875 C17.34945649 15.19786008 17.34945649 15.19786008 15.96875 13.3125 C13.01116374 11.34077583 10.32629715 11.47368336 6.8125 11.3125 C5.54019531 11.24675781 4.26789063 11.18101562 2.95703125 11.11328125 C1.49330078 11.05720703 1.49330078 11.05720703 0 11 C0 7.37 0 3.74 0 0 Z " fill="#223A05" transform="translate(217,162)"/>
<path d="M0 0 C0.66 0 1.32 0 2 0 C4.44064587 5.64399358 4.19289099 10.97751478 4 17 C3.09636719 17.06058594 2.19273437 17.12117188 1.26171875 17.18359375 C-0.50751953 17.30927734 -0.50751953 17.30927734 -2.3125 17.4375 C-4.07013672 17.55931641 -4.07013672 17.55931641 -5.86328125 17.68359375 C-9.02590958 17.8867371 -9.02590958 17.8867371 -12 19 C-11.505 17.515 -11.505 17.515 -11 16 C-6.38 16 -1.76 16 3 16 C2.51473373 11.22821506 1.89768253 7.42792589 0 3 C0 2.01 0 1.02 0 0 Z " fill="#1E3D06" transform="translate(278,156)"/>
<path d="M0 0 C5.94 0.33 11.88 0.66 18 1 C18 1.33 18 1.66 18 2 C16.71029297 2.03867188 16.71029297 2.03867188 15.39453125 2.078125 C6.6680387 2.49684438 -0.74219901 4.05078536 -9 7 C-9 6.34 -9 5.68 -9 5 C-6.03 4.01 -3.06 3.02 0 2 C0 1.34 0 0.68 0 0 Z " fill="#324F17" transform="translate(236,124)"/>
<path d="M0 0 C1.50560497 2.85410334 2.63216796 5.68124642 3.625 8.75 C3.88539063 9.54921875 4.14578125 10.3484375 4.4140625 11.171875 C4.60742188 11.77515625 4.80078125 12.3784375 5 13 C4.34 13 3.68 13 3 13 C2.34 11.35 1.68 9.7 1 8 C-2.0745356 8.7763932 -2.0745356 8.7763932 -4 11 C-4.33 9.02 -4.66 7.04 -5 5 C-4.34 4.67 -3.68 4.34 -3 4 C-2.67 4.66 -2.34 5.32 -2 6 C-1.34 4.02 -0.68 2.04 0 0 Z " fill="#FDBB57" transform="translate(185,266)"/>
<path d="M0 0 C0.66 0.33 1.32 0.66 2 1 C0.71520959 2.50589388 -0.57804082 4.00457375 -1.875 5.5 C-2.59429687 6.3353125 -3.31359375 7.170625 -4.0546875 8.03125 C-4.69664062 8.6809375 -5.33859375 9.330625 -6 10 C-6.66 10 -7.32 10 -8 10 C-8.33 10.99 -8.66 11.98 -9 13 C-9.99 13.33 -10.98 13.66 -12 14 C-10.60089587 9.47301364 -8.4384826 7.24844018 -4.875 4.1875 C-3.96492187 3.39730469 -3.05484375 2.60710937 -2.1171875 1.79296875 C-1.06917969 0.90544922 -1.06917969 0.90544922 0 0 Z " fill="#294915" transform="translate(233,140)"/>
<path d="M0 0 C2.27057377 -0.05398987 4.54151288 -0.09278742 6.8125 -0.125 C8.07707031 -0.14820313 9.34164062 -0.17140625 10.64453125 -0.1953125 C14 0 14 0 17 2 C17.1875 5.625 17.1875 5.625 17 9 C15.02 9.99 15.02 9.99 13 11 C13.165 10.05125 13.33 9.1025 13.5 8.125 C14.0526635 5.19831099 14.0526635 5.19831099 14 3 C11.29816945 1.64908472 8.88191794 1.66141942 5.875 1.4375 C4.23144531 1.31181641 4.23144531 1.31181641 2.5546875 1.18359375 C1.71164063 1.12300781 0.86859375 1.06242188 0 1 C0 0.67 0 0.34 0 0 Z " fill="#D8B661" transform="translate(217,226)"/>
<path d="M0 0 C3.625 0.375 3.625 0.375 7 1 C7 1.33 7 1.66 7 2 C5.02 2.33 3.04 2.66 1 3 C1.18828772 5.44480079 1.18828772 5.44480079 2 8 C3.96758273 9.36020151 3.96758273 9.36020151 6 10 C2.625 10.1875 2.625 10.1875 -1 10 C-3 7 -3 7 -2.75 4.4375 C-2 2 -2 2 0 0 Z " fill="#D8B662" transform="translate(200,349)"/>
<path d="M0 0 C1.1875 1.5 1.1875 1.5 2 4 C1.3037664 5.88977693 0.59590843 7.77688911 -0.1953125 9.62890625 C-1.66086914 13.94731829 -1.75865154 18.47263573 -2 23 C-2.33 23 -2.66 23 -3 23 C-3 17.72 -3 12.44 -3 7 C-3.66 6.67 -4.32 6.34 -5 6 C-4.34 5.01 -3.68 4.02 -3 3 C-2.34 3 -1.68 3 -1 3 C-0.67 2.01 -0.34 1.02 0 0 Z " fill="#D2B159" transform="translate(219,150)"/>
<path d="M0 0 C4.33333333 4.33333333 8.66666667 8.66666667 13 13 C11.68 13.33 10.36 13.66 9 14 C8.67 13.01 8.34 12.02 8 11 C7.21625 10.79375 6.4325 10.5875 5.625 10.375 C2.39474036 8.68295924 2.28918027 7.74856637 1.1875 4.375 C0.77267189 2.92195569 0.37074916 1.46491133 0 0 Z " fill="#254611" transform="translate(184,283)"/>
<path d="M0 0 C1.32 0.66 2.64 1.32 4 2 C2.9015258 3.46262592 1.7959964 4.91995503 0.6875 6.375 C0.07261719 7.18710937 -0.54226563 7.99921875 -1.17578125 8.8359375 C-3 11 -3 11 -6 13 C-6 12.01 -6 11.02 -6 10 C-5.34 10 -4.68 10 -4 10 C-4 9.34 -4 8.68 -4 8 C-4.66 8 -5.32 8 -6 8 C-6 7.34 -6 6.68 -6 6 C-4.68 6.33 -3.36 6.66 -2 7 C-2 6.34 -2 5.68 -2 5 C-1.34 5 -0.68 5 0 5 C0 3.35 0 1.7 0 0 Z " fill="#DDB45E" transform="translate(312,280)"/>
<path d="M0 0 C-0.33 1.32 -0.66 2.64 -1 4 C-5.25566547 5.16063604 -8.6835078 4.76173392 -13 4 C-10.34531286 2.23020858 -8.92500069 1.57859829 -5.9375 0.875 C-5.24527344 0.70742187 -4.55304688 0.53984375 -3.83984375 0.3671875 C-2 0 -2 0 0 0 Z " fill="#326047" transform="translate(183,96)"/>
<path d="M0 0 C0.99 0.33 1.98 0.66 3 1 C0.36 5.62 -2.28 10.24 -5 15 C-5.33 15 -5.66 15 -6 15 C-6 13.02 -6 11.04 -6 9 C-5.34 9 -4.68 9 -4 9 C-3.896875 8.443125 -3.79375 7.88625 -3.6875 7.3125 C-2.86866423 4.55823422 -1.54146219 2.41272343 0 0 Z " fill="#557E63" transform="translate(358,323)"/>
<path d="M0 0 C0.33 0 0.66 0 1 0 C1 1.65 1 3.3 1 5 C1.66 5 2.32 5 3 5 C3 5.99 3 6.98 3 8 C-2.61 8 -8.22 8 -14 8 C-14 7.67 -14 7.34 -14 7 C-9.71 7 -5.42 7 -1 7 C-1 5.02 -1 3.04 -1 1 C-0.67 0.67 -0.34 0.34 0 0 Z " fill="#C6AA54" transform="translate(283,166)"/>
<path d="M0 0 C0.66 0.33 1.32 0.66 2 1 C0.73168307 1.81642254 -0.53975931 2.62799105 -1.8125 3.4375 C-2.87404297 4.11619141 -2.87404297 4.11619141 -3.95703125 4.80859375 C-7.10534314 6.64460738 -9.61395793 7.12108266 -13.1875 7.0625 C-15.0746875 7.0315625 -15.0746875 7.0315625 -17 7 C-14.18333306 5.12222204 -12.26813641 4.38697308 -9.0625 3.5 C-6.46916429 2.78028089 -4.19187133 2.10123693 -1.80859375 0.84375 C-0.91333984 0.42609375 -0.91333984 0.42609375 0 0 Z " fill="#D5B360" transform="translate(281,296)"/>
<path d="M0 0 C4.43090471 1.20842856 6.98112756 2.51668565 10 6 C8.02 6.99 8.02 6.99 6 8 C4.9970458 6.85675161 3.99770973 5.71032809 3 4.5625 C2.443125 3.92441406 1.88625 3.28632813 1.3125 2.62890625 C0 1 0 1 0 0 Z " fill="#164212" transform="translate(190,272)"/>
<path d="M0 0 C4.18423892 3.50897269 8.19588166 7.08060535 12 11 C10.35 10.67 8.7 10.34 7 10 C7 9.34 7 8.68 7 8 C6.401875 7.71125 5.80375 7.4225 5.1875 7.125 C3 6 3 6 0 4 C0 2.68 0 1.36 0 0 Z " fill="#DFB961" transform="translate(197,281)"/>
<path d="M0 0 C0.93045933 2.55144824 1.08564091 3.74006478 0.22265625 6.359375 C-0.16019531 7.14828125 -0.54304688 7.9371875 -0.9375 8.75 C-1.50791016 9.94882812 -1.50791016 9.94882812 -2.08984375 11.171875 C-2.39019531 11.77515625 -2.69054687 12.3784375 -3 13 C-3.91963994 9.53826591 -4.38300408 6.60023837 -4 3 C-2 1.125 -2 1.125 0 0 Z " fill="#19420E" transform="translate(280,248)"/>
<path d="M0 0 C0.33 0 0.66 0 1 0 C1.33 4.95 1.66 9.9 2 15 C-1.28976808 16.09658936 -2.71303767 15.79953138 -6 15 C-6 14.67 -6 14.34 -6 14 C-4.35 13.67 -2.7 13.34 -1 13 C-0.67 8.71 -0.34 4.42 0 0 Z " fill="#F3C062" transform="translate(283,213)"/>
<path d="M0 0 C0.33 0 0.66 0 1 0 C1 2.64 1 5.28 1 8 C-2.1749094 9.9078584 -4.10585211 10.1609041 -7.75 9.625 C-8.54921875 9.51414062 -9.3484375 9.40328125 -10.171875 9.2890625 C-11.07679688 9.14597656 -11.07679688 9.14597656 -12 9 C-12 8.67 -12 8.34 -12 8 C-8.7 7.34 -5.4 6.68 -2 6 C-1.34 4.02 -0.68 2.04 0 0 Z " fill="#1C4410" transform="translate(304,352)"/>
<path d="M0 0 C0.66 0.33 1.32 0.66 2 1 C0.75803878 2.15454162 -0.49392845 3.29832562 -1.75 4.4375 C-2.44609375 5.07558594 -3.1421875 5.71367187 -3.859375 6.37109375 C-5.98792725 7.99081325 -7.39023405 8.58267256 -10 9 C-10.33 8.01 -10.66 7.02 -11 6 C-8.50907189 4.75453595 -7.58919267 5.2232422 -5 6 C-4.67 5.01 -4.34 4.02 -4 3 C-3.34 3 -2.68 3 -2 3 C-2 2.34 -2 1.68 -2 1 C-1.34 0.67 -0.68 0.34 0 0 Z " fill="#1F4110" transform="translate(273,262)"/>
<path d="M0 0 C0.99 0.66 1.98 1.32 3 2 C2.071875 2.556875 1.14375 3.11375 0.1875 3.6875 C-2.96976392 5.97806402 -4.14836074 7.66704933 -6 11 C-6.66 11 -7.32 11 -8 11 C-8 11.66 -8 12.32 -8 13 C-8.66 12.67 -9.32 12.34 -10 12 C-3.84965831 3.55353075 -3.84965831 3.55353075 0 0 Z " fill="#D9B764" transform="translate(221,135)"/>
<path d="M0 0 C0.66 0 1.32 0 2 0 C2 0.99 2 1.98 2 3 C4.64 2.67 7.28 2.34 10 2 C7.6870518 4.3129482 6.52095125 4.49580975 3.375 5.125 C2.55773437 5.29257813 1.74046875 5.46015625 0.8984375 5.6328125 C-0.04128906 5.81457031 -0.04128906 5.81457031 -1 6 C-1.625 4.125 -1.625 4.125 -2 2 C-1.34 1.34 -0.68 0.68 0 0 Z " fill="#E2B55F" transform="translate(234,134)"/>
<path d="M0 0 C-1.26865682 2.53731364 -2.49709121 2.78646846 -5 4 C-5.66 4.66 -6.32 5.32 -7 6 C-7 5.34 -7 4.68 -7 4 C-7.66 4 -8.32 4 -9 4 C-9 2.68 -9 1.36 -9 0 C-5.62182575 -0.84454356 -3.32534757 -1.10844919 0 0 Z " fill="#315F44" transform="translate(110,113)"/>
<path d="M0 0 C0 3 0 3 -2 5.1875 C-2.66 5.785625 -3.32 6.38375 -4 7 C-4 6.34 -4 5.68 -4 5 C-4.5775 5.350625 -5.155 5.70125 -5.75 6.0625 C-8 7 -8 7 -12 6 C-8.04 4.02 -4.08 2.04 0 0 Z " fill="#5E846C" transform="translate(239,71)"/>
<path d="M0 0 C0.66 0.33 1.32 0.66 2 1 C1.375 3.4375 1.375 3.4375 0 6 C-3.59356359 7.0704232 -5.4268387 7.19105377 -9 6 C-6.03 4.02 -3.06 2.04 0 0 Z " fill="#E0B760" transform="translate(292,289)"/>
<path d="M0 0 C0.66 0 1.32 0 2 0 C2.33 0.33 2.66 0.66 3 1 C3.66 1 4.32 1 5 1 C4.60196439 3.88575819 4.20990931 4.82189513 1.9375 6.75 C1.298125 7.1625 0.65875 7.575 0 8 C0 6.68 0 5.36 0 4 C-0.66 4 -1.32 4 -2 4 C-2 3.34 -2 2.68 -2 2 C-1.34 2 -0.68 2 0 2 C0 1.34 0 0.68 0 0 Z " fill="#1D4817" transform="translate(299,276)"/>
<path d="M0 0 C0.66 0 1.32 0 2 0 C2.25 2.25 2.25 2.25 2 5 C0 7.3125 0 7.3125 -2 9 C-2.99 8.67 -3.98 8.34 -5 8 C-4.21718695 6.66144944 -3.42348123 5.32926356 -2.625 4 C-2.18414062 3.2575 -1.74328125 2.515 -1.2890625 1.75 C-0.86367188 1.1725 -0.43828125 0.595 0 0 Z " fill="#214711" transform="translate(323,270)"/>
<path d="M0 0 C0.33 0 0.66 0 1 0 C1.31620422 6.79839071 0.12676382 13.30983984 -1 20 C-1.33 20 -1.66 20 -2 20 C-2.85379473 14.70416512 -3.40953144 10.95292574 -1 6 C-0.62406934 4.0075675 -0.28020455 2.0081326 0 0 Z " fill="#759381" transform="translate(395,207)"/>
<path d="M0 0 C0 0.66 0 1.32 0 2 C0.66 2.33 1.32 2.66 2 3 C0.98679688 3.19916016 0.98679688 3.19916016 -0.046875 3.40234375 C-1.38492188 3.66724609 -1.38492188 3.66724609 -2.75 3.9375 C-3.63171875 4.11152344 -4.5134375 4.28554687 -5.421875 4.46484375 C-7.63235053 4.92368488 -9.81512068 5.43336074 -12 6 C-8.68803702 2.17850426 -5.19066552 0 0 0 Z " fill="#DFB760" transform="translate(234,129)"/>
<path d="M0 0 C2.475 0.495 2.475 0.495 5 1 C5 1.66 5 2.32 5 3 C6.32 3.33 7.64 3.66 9 4 C8.67 5.32 8.34 6.64 8 8 C6.66372225 6.85760183 5.33104612 5.71098945 4 4.5625 C3.2575 3.92441406 2.515 3.28632813 1.75 2.62890625 C1.1725 2.09136719 0.595 1.55382812 0 1 C0 0.67 0 0.34 0 0 Z " fill="#4A6E56" transform="translate(183,384)"/>
<path d="M0 0 C0.99 0 1.98 0 3 0 C3.33 0.99 3.66 1.98 4 3 C4.99 3 5.98 3 7 3 C7.625 5.875 7.625 5.875 8 9 C7.34 9.66 6.68 10.32 6 11 C4.02 7.37 2.04 3.74 0 0 Z " fill="#517862" transform="translate(141,327)"/>
<path d="M0 0 C2.31 0.33 4.62 0.66 7 1 C7.33 2.32 7.66 3.64 8 5 C6.6078125 4.7215625 6.6078125 4.7215625 5.1875 4.4375 C1.98656229 3.75876119 1.98656229 3.75876119 -1 5 C-0.67 3.35 -0.34 1.7 0 0 Z " fill="#1B4412" transform="translate(175,160)"/>
<path d="M0 0 C6.50313209 -0.46450943 10.4174808 0.67424388 16 4 C16 4.66 16 5.32 16 6 C11 4 11 4 8.5625 2.9375 C5.72285406 1.89860514 2.98906375 1.41707866 0 1 C0 0.67 0 0.34 0 0 Z " fill="#D0B05E" transform="translate(253,136)"/>
<path d="M0 0 C0.66 0.33 1.32 0.66 2 1 C1.34 2.32 0.68 3.64 0 5 C-2.97 5 -5.94 5 -9 5 C-6.32239719 2.32239719 -3.52050129 1.32018799 0 0 Z " fill="#4B755E" transform="translate(223,79)"/>
<path d="M0 0 C2.64 0 5.28 0 8 0 C2.85714286 4.42857143 2.85714286 4.42857143 -1 5 C-0.67 3.35 -0.34 1.7 0 0 Z " fill="#50765D" transform="translate(257,426)"/>
<path d="M0 0 C6.75 1.875 6.75 1.875 9 3 C9 3.66 9 4.32 9 5 C9.66 5 10.32 5 11 5 C11 5.66 11 6.32 11 7 C9.68 6.67 8.36 6.34 7 6 C7 5.34 7 4.68 7 4 C6.401875 3.896875 5.80375 3.79375 5.1875 3.6875 C2.71756736 2.91123545 1.67748765 1.92911079 0 0 Z " fill="#658473" transform="translate(222,418)"/>
<path d="M0 0 C1.98 0 3.96 0 6 0 C6.99 2.31 7.98 4.62 9 7 C7 6 5 5 3 4 C3 3.34 3 2.68 3 2 C2.01 1.67 1.02 1.34 0 1 C0 0.67 0 0.34 0 0 Z " fill="#587E68" transform="translate(213,411)"/>
<path d="M0 0 C0.99 0.66 1.98 1.32 3 2 C2.01 2.33 1.02 2.66 0 3 C0 3.66 0 4.32 0 5 C-2.5 6.625 -2.5 6.625 -5 8 C-5 6.02 -5 4.04 -5 2 C-4.34 2 -3.68 2 -3 2 C-2.67 2.33 -2.34 2.66 -2 3 C-1.34 2.01 -0.68 1.02 0 0 Z " fill="#416B52" transform="translate(301,395)"/>
<path d="M0 0 C0.66 0 1.32 0 2 0 C2 0.99 2 1.98 2 3 C2.66 3 3.32 3 4 3 C4 5.97 4 8.94 4 12 C3.01 12 2.02 12 1 12 C1.3403125 10.39125 1.3403125 10.39125 1.6875 8.75 C2.35775825 5.07021424 2.35775825 5.07021424 0.5625 2.5625 C0.046875 2.046875 -0.46875 1.53125 -1 1 C-0.67 0.67 -0.34 0.34 0 0 Z " fill="#234611" transform="translate(232,172)"/>
<path d="M0 0 C0 0.33 0 0.66 0 1 C-4 2.33333333 -8 3.66666667 -12 5 C-12.66 4.34 -13.32 3.68 -14 3 C-8.99067246 -0.00559652 -5.67276511 -0.29341888 0 0 Z " fill="#4F725E" transform="translate(254,67)"/>
<path d="M0 0 C0 3.37027852 -0.49824008 4.06702696 -2.4375 6.6875 C-2.88996094 7.31011719 -3.34242188 7.93273437 -3.80859375 8.57421875 C-4.20175781 9.04472656 -4.59492188 9.51523437 -5 10 C-5.33 10 -5.66 10 -6 10 C-6 8.35 -6 6.7 -6 5 C-4.68 4.34 -3.36 3.68 -2 3 C-2 2.34 -2 1.68 -2 1 C-1.34 0.67 -0.68 0.34 0 0 Z " fill="#547964" transform="translate(348,343)"/>
<path d="M0 0 C0 1.32 0 2.64 0 4 C0.33 4.66 0.66 5.32 1 6 C-0.65 6 -2.3 6 -4 6 C-4.66 4.68 -5.32 3.36 -6 2 C-2.25 0 -2.25 0 0 0 Z " fill="#1B471B" transform="translate(271,280)"/>
<path d="M0 0 C1.5 1.3125 1.5 1.3125 3 3 C3 3.99 3 4.98 3 6 C3.66 6.33 4.32 6.66 5 7 C4.34 8.98 3.68 10.96 3 13 C2.67 13 2.34 13 2 13 C1.66127487 11.58461283 1.32925376 10.16762037 1 8.75 C0.814375 7.96109375 0.62875 7.1721875 0.4375 6.359375 C0 4 0 4 0 0 Z " fill="#587D67" transform="translate(106,224)"/>
<path d="M0 0 C0.33 0.66 0.66 1.32 1 2 C1.99 2 2.98 2 4 2 C2.70700306 4.88437779 1.34058637 6.87219421 -1 9 C-1.09765625 2.84765625 -1.09765625 2.84765625 -1 1 C-0.67 0.67 -0.34 0.34 0 0 Z " fill="#E9BB61" transform="translate(222,143)"/>
<path d="M0 0 C2.31 0.66 4.62 1.32 7 2 C7.12375 2.639375 7.2475 3.27875 7.375 3.9375 C7.684375 4.9584375 7.684375 4.9584375 8 6 C8.66 6.33 9.32 6.66 10 7 C6.433255 7 5.89456323 6.36308045 3.3125 4.0625 C2.68988281 3.51722656 2.06726563 2.97195312 1.42578125 2.41015625 C0.95527344 1.94480469 0.48476563 1.47945312 0 1 C0 0.67 0 0.34 0 0 Z " fill="#264811" transform="translate(273,131)"/>
<path d="M0 0 C3.77545388 1.09068668 6.47043472 1.9083091 9 5 C8.01 5.66 7.02 6.32 6 7 C1.125 3.375 1.125 3.375 0 0 Z " fill="#497258" transform="translate(272,77)"/>
<path d="M0 0 C1.32 0 2.64 0 4 0 C4 0.66 4 1.32 4 2 C6.97 2.495 6.97 2.495 10 3 C10.33 3.99 10.66 4.98 11 6 C6.95743617 4.77782954 3.50711041 3.37245704 0 1 C0 0.67 0 0.34 0 0 Z " fill="#597A67" transform="translate(237,427)"/>
<path d="M0 0 C1.32 0.33 2.64 0.66 4 1 C3.34 1.66 2.68 2.32 2 3 C2.16417032 6.56592619 2.16417032 6.56592619 3 10 C3.66 10.33 4.32 10.66 5 11 C4.01 11 3.02 11 2 11 C2 10.34 2 9.68 2 9 C1.34 9 0.68 9 0 9 C0 6.03 0 3.06 0 0 Z " fill="#21440C" transform="translate(196,349)"/>
<path d="M0 0 C-1 3 -1 3 -2.70703125 3.984375 C-3.40183594 4.23703125 -4.09664063 4.4896875 -4.8125 4.75 C-5.49957031 5.01296875 -6.18664062 5.2759375 -6.89453125 5.546875 C-9.28143969 6.06056958 -10.70637773 5.76282269 -13 5 C-11.21046815 4.16209211 -9.41830305 3.32980604 -7.625 2.5 C-6.62726563 2.0359375 -5.62953125 1.571875 -4.6015625 1.09375 C-2 0 -2 0 0 0 Z " fill="#304A16" transform="translate(292,304)"/>
<path d="M0 0 C0.33 0.66 0.66 1.32 1 2 C1.66 2 2.32 2 3 2 C3.99 4.64 4.98 7.28 6 10 C5.34 10.66 4.68 11.32 4 12 C3.32645501 10.56570999 2.66140299 9.12742943 2 7.6875 C1.62875 6.88699219 1.2575 6.08648437 0.875 5.26171875 C0 3 0 3 0 0 Z " fill="#507960" transform="translate(121,281)"/>
<path d="M0 0 C0 3 0 3 -1 5 C-2.84765625 5.6328125 -2.84765625 5.6328125 -5.0625 6.125 C-5.79597656 6.29257812 -6.52945312 6.46015625 -7.28515625 6.6328125 C-7.85105469 6.75398438 -8.41695313 6.87515625 -9 7 C-6.3765992 4.08511023 -3.28183606 2.11496102 0 0 Z " fill="#244712" transform="translate(301,297)"/>
<path d="M0 0 C0.33 0.66 0.66 1.32 1 2 C-0.65 2 -2.3 2 -4 2 C-2.68 1.34 -1.36 0.68 0 0 Z M-8 2 C-6.68 2.33 -5.36 2.66 -4 3 C-4.33 3.66 -4.66 4.32 -5 5 C-8.0625 5.625 -8.0625 5.625 -11 6 C-10.01 4.68 -9.02 3.36 -8 2 Z " fill="#E3B55A" transform="translate(306,282)"/>
<path d="M0 0 C0.66 0 1.32 0 2 0 C4.42857143 6.28571429 4.42857143 6.28571429 3 10 C0 3.375 0 3.375 0 0 Z " fill="#2C4C14" transform="translate(278,156)"/>
<path d="M0 0 C2.91517292 1.07401108 4.77810176 1.77810176 7 4 C4.36 4.33 1.72 4.66 -1 5 C-0.67 3.35 -0.34 1.7 0 0 Z " fill="#194614" transform="translate(209,305)"/>
<path d="M0 0 C2.31 0.33 4.62 0.66 7 1 C7 1.66 7 2.32 7 3 C7.66 3.33 8.32 3.66 9 4 C8.01 4.33 7.02 4.66 6 5 C2.8125 3.125 2.8125 3.125 0 1 C0 0.67 0 0.34 0 0 Z " fill="#274713" transform="translate(230,267)"/>
<path d="M0 0 C0 0.66 0 1.32 0 2 C0.66 2.33 1.32 2.66 2 3 C-1.96 3 -5.92 3 -10 3 C-6.48579734 1.24289867 -3.89581553 0 0 0 Z " fill="#F2C165" transform="translate(228,234)"/>
<path d="M0 0 C2.64 0.66 5.28 1.32 8 2 C7.67 2.66 7.34 3.32 7 4 C4.36 4 1.72 4 -1 4 C-0.67 2.68 -0.34 1.36 0 0 Z " fill="#1E4411" transform="translate(175,180)"/>
<path d="M0 0 C2.91517292 1.07401108 4.77810176 1.77810176 7 4 C6.34 5.32 5.68 6.64 5 8 C2.525 4.04 2.525 4.04 0 0 Z " fill="#61856D" transform="translate(157,352)"/>
<path d="M0 0 C0.66 0 1.32 0 2 0 C2 0.66 2 1.32 2 2 C4.475 2.99 4.475 2.99 7 4 C6.67 5.65 6.34 7.3 6 9 C3.59927045 6.11912454 1.52708963 3.43595166 0 0 Z " fill="#5F826E" transform="translate(151,343)"/>
<path d="M0 0 C2.625 1.4375 2.625 1.4375 5 3 C4.67 3.66 4.34 4.32 4 5 C3.21625 4.814375 2.4325 4.62875 1.625 4.4375 C-0.97089775 3.74037734 -0.97089775 3.74037734 -3 5 C-2.625 3.0625 -2.625 3.0625 -2 1 C-1.34 0.67 -0.68 0.34 0 0 Z " fill="#1D440D" transform="translate(131,160)"/>
<path d="M0 0 C3.34373475 0.55728913 6.03312999 1.35173889 9 3 C5.18510326 4.46726798 2.70988378 3.43336419 -1 2 C-0.67 1.34 -0.34 0.68 0 0 Z " fill="#597B66" transform="translate(310,93)"/>
<path d="M0 0 C0.66 0 1.32 0 2 0 C0.90931332 3.77545388 0.0916909 6.47043472 -3 9 C-3 7.68 -3 6.36 -3 5 C-2.34 5 -1.68 5 -1 5 C-0.67 3.35 -0.34 1.7 0 0 Z " fill="#D9B660" transform="translate(289,256)"/>
<path d="M0 0 C2.97 0.495 2.97 0.495 6 1 C5.67 1.66 5.34 2.32 5 3 C4.34 3 3.68 3 3 3 C3 3.66 3 4.32 3 5 C2.01 4.67 1.02 4.34 0 4 C0 2.68 0 1.36 0 0 Z " fill="#336448" transform="translate(307,387)"/>
<path d="M0 0 C2.64 0.33 5.28 0.66 8 1 C8 1.99 8 2.98 8 4 C5.64828869 3.40138258 3.3140622 2.73075648 1 2 C0.67 1.34 0.34 0.68 0 0 Z " fill="#CEAE5D" transform="translate(213,306)"/>
<path d="M0 0 C1.98 0 3.96 0 6 0 C3.87219421 2.34058637 1.88437779 3.70700306 -1 5 C-0.67 3.35 -0.34 1.7 0 0 Z " fill="#244514" transform="translate(285,290)"/>
<path d="M0 0 C1.32 0.66 2.64 1.32 4 2 C-1.625 5 -1.625 5 -5 5 C-5 4.34 -5 3.68 -5 3 C-3.68 3 -2.36 3 -1 3 C-0.67 2.01 -0.34 1.02 0 0 Z " fill="#E2BA65" transform="translate(267,278)"/>
<path d="M0 0 C2.9375 0.375 2.9375 0.375 6 1 C6.33 1.66 6.66 2.32 7 3 C4.03 3 1.06 3 -2 3 C-1.34 2.01 -0.68 1.02 0 0 Z " fill="#D0B562" transform="translate(325,215)"/>
<path d="M0 0 C0 0.99 0 1.98 0 3 C-3.3 2.67 -6.6 2.34 -10 2 C-10 1.67 -10 1.34 -10 1 C-3.375 0 -3.375 0 0 0 Z " fill="#4F775F" transform="translate(150,105)"/>
<path d="M0 0 C2.35171131 0.59861742 4.6859378 1.26924352 7 2 C7.33 2.66 7.66 3.32 8 4 C6.35 4.33 4.7 4.66 3 5 C2.01 3.35 1.02 1.7 0 0 Z " fill="#59826C" transform="translate(294,87)"/>
</svg>
